# Created by Kenney (www.kenney.nl)

mtllib dead-flower.mtl

v 2 4 0.5
v 2 4 -0.5
v 1 4 0.5
v 1 4 -0.5
v 1 5 -0.5
v 1 5 0.5
v 2 5 -0.5
v 2 5 0.5
v 0 5 0.5
v 0 5 -0.5
v 0 6 -0.5
v 0 6 0.5
v 1 6 -0.5
v 1 6 0.5
v 0 4 0.5
v 0 4 -0.5
v 1 3 0.5
v 1 3 -0.5
v 0 3 0.5
v 0 3 -0.5
v 1 1 0.5
v 1 1 -0.5
v 0 1 0.5
v 0 1 -0.5
v 1 -2 0.5
v 1 -2 -0.5
v -2 -2 0.5
v -2 -2 -0.5
v -2 -1 -0.5
v -2 -1 0.5
v 1 -1 -0.5
v 1 -1 0.5
v -1 4 0.5
v -1 4 -0.5
v -1 5 -0.5
v -1 5 0.5
v 0 -1 0.5
v 0 -1 -0.5
v -1 -1 0.5
v -1 -1 -0.5
v -1 2 -0.5
v -1 2 0.5
v 0 2 -0.5
v 0 2 0.5
v -1 0 0.5
v -1 0 -0.5
v -2 0 0.5
v -2 0 -0.5
v -2 1 -0.5
v -2 1 0.5
v -1 1 -0.5
v -1 1 0.5

vn 0 -1 0
vn -1 0 0
vn 0 0 -1
vn 0 0 1
vn 1 0 0
vn 0 1 0

vt 0.0625 0.0625
vt 0.1875 0.0625
vt 0.3125 0.0625

usemtl palette(Clone)

f 3/1/1 2/1/1 1/1/1
f 2/1/1 3/1/1 4/1/1
f 3/1/2 5/1/2 4/1/2
f 5/1/2 3/1/2 6/1/2
f 5/1/3 2/1/3 4/1/3
f 2/1/3 5/1/3 7/1/3
f 8/1/4 3/1/4 1/1/4
f 3/1/4 8/1/4 6/1/4
f 8/1/5 2/1/5 7/1/5
f 2/1/5 8/1/5 1/1/5
f 5/1/6 8/1/6 7/1/6
f 8/1/6 5/1/6 6/1/6
f 9/1/1 5/1/1 6/1/1
f 5/1/1 9/1/1 10/1/1
f 9/1/2 11/1/2 10/1/2
f 11/1/2 9/1/2 12/1/2
f 11/1/3 5/1/3 10/1/3
f 5/1/3 11/1/3 13/1/3
f 14/1/4 9/1/4 6/1/4
f 9/1/4 14/1/4 12/1/4
f 14/1/5 5/1/5 13/1/5
f 5/1/5 14/1/5 6/1/5
f 11/1/6 14/1/6 13/1/6
f 14/1/6 11/1/6 12/1/6
f 15/2/1 4/2/1 3/2/1
f 4/2/1 15/2/1 16/2/1
f 15/2/2 10/2/2 16/2/2
f 10/2/2 15/2/2 9/2/2
f 10/2/3 4/2/3 16/2/3
f 4/2/3 10/2/3 5/2/3
f 6/2/4 15/2/4 3/2/4
f 15/2/4 6/2/4 9/2/4
f 6/2/5 4/2/5 5/2/5
f 4/2/5 6/2/5 3/2/5
f 10/2/6 6/2/6 5/2/6
f 6/2/6 10/2/6 9/2/6
f 19/1/1 18/1/1 17/1/1
f 18/1/1 19/1/1 20/1/1
f 19/1/2 16/1/2 20/1/2
f 16/1/2 19/1/2 15/1/2
f 16/1/3 18/1/3 20/1/3
f 18/1/3 16/1/3 4/1/3
f 3/1/4 19/1/4 17/1/4
f 19/1/4 3/1/4 15/1/4
f 3/1/5 18/1/5 4/1/5
f 18/1/5 3/1/5 17/1/5
f 16/1/6 3/1/6 4/1/6
f 3/1/6 16/1/6 15/1/6
f 23/3/1 22/3/1 21/3/1
f 22/3/1 23/3/1 24/3/1
f 23/3/2 20/3/2 24/3/2
f 20/3/2 23/3/2 19/3/2
f 20/3/3 22/3/3 24/3/3
f 22/3/3 20/3/3 18/3/3
f 17/3/4 23/3/4 21/3/4
f 23/3/4 17/3/4 19/3/4
f 17/3/5 22/3/5 18/3/5
f 22/3/5 17/3/5 21/3/5
f 20/3/6 17/3/6 18/3/6
f 17/3/6 20/3/6 19/3/6
f 27/3/1 26/3/1 25/3/1
f 26/3/1 27/3/1 28/3/1
f 27/3/2 29/3/2 28/3/2
f 29/3/2 27/3/2 30/3/2
f 29/3/3 26/3/3 28/3/3
f 26/3/3 29/3/3 31/3/3
f 32/3/4 27/3/4 25/3/4
f 27/3/4 32/3/4 30/3/4
f 32/3/5 26/3/5 31/3/5
f 26/3/5 32/3/5 25/3/5
f 29/3/6 32/3/6 31/3/6
f 32/3/6 29/3/6 30/3/6
f 33/1/1 16/1/1 15/1/1
f 16/1/1 33/1/1 34/1/1
f 33/1/2 35/1/2 34/1/2
f 35/1/2 33/1/2 36/1/2
f 35/1/3 16/1/3 34/1/3
f 16/1/3 35/1/3 10/1/3
f 9/1/4 33/1/4 15/1/4
f 33/1/4 9/1/4 36/1/4
f 9/1/5 16/1/5 10/1/5
f 16/1/5 9/1/5 15/1/5
f 35/1/6 9/1/6 10/1/6
f 9/1/6 35/1/6 36/1/6
f 39/3/1 38/3/1 37/3/1
f 38/3/1 39/3/1 40/3/1
f 39/3/2 41/3/2 40/3/2
f 41/3/2 39/3/2 42/3/2
f 41/3/3 38/3/3 40/3/3
f 38/3/3 41/3/3 43/3/3
f 44/3/4 39/3/4 37/3/4
f 39/3/4 44/3/4 42/3/4
f 44/3/5 38/3/5 43/3/5
f 38/3/5 44/3/5 37/3/5
f 41/3/6 44/3/6 43/3/6
f 44/3/6 41/3/6 42/3/6
f 47/3/1 46/3/1 45/3/1
f 46/3/1 47/3/1 48/3/1
f 47/3/2 49/3/2 48/3/2
f 49/3/2 47/3/2 50/3/2
f 49/3/3 46/3/3 48/3/3
f 46/3/3 49/3/3 51/3/3
f 52/3/4 47/3/4 45/3/4
f 47/3/4 52/3/4 50/3/4
f 52/3/5 46/3/5 51/3/5
f 46/3/5 52/3/5 45/3/5
f 49/3/6 52/3/6 51/3/6
f 52/3/6 49/3/6 50/3/6

