# MagicaVoxel @ Ephtracy

# material
mtllib astro1.mtl
usemtl palette

# normals
vn -1 0 0
vn 1 0 0
vn 0 0 1
vn 0 0 -1
vn 0 -1 0
vn 0 1 0

# texcoords
vt 0.849609 0.5
vt 0.857422 0.5
vt 0.880859 0.5
vt 0.958984 0.5
vt 0.962891 0.5
vt 0.966797 0.5
vt 0.974609 0.5

# verts
v -11 12 46
v -11 12 44
v -11 17 46
v -11 17 44
v -10 12 47
v -10 12 46
v -10 12 44
v -10 12 43
v -10 17 48
v -10 17 47
v -10 17 46
v -10 17 44
v -10 17 43
v -10 18 47
v -10 18 46
v -10 22 48
v -10 22 47
v -9 11 47
v -9 11 43
v -9 12 47
v -9 12 43
v -9 17 46
v -9 17 43
v -9 18 46
v -9 18 43
v -8 0 48
v -8 0 47
v -8 0 43
v -8 0 42
v -8 3 48
v -8 3 47
v -8 3 43
v -8 3 42
v -8 4 47
v -8 4 46
v -8 4 44
v -8 4 43
v -8 8 46
v -8 8 44
v -8 11 49
v -8 11 48
v -8 11 47
v -8 11 43
v -8 11 42
v -8 11 41
v -8 12 47
v -8 12 43
v -8 13 49
v -8 13 48
v -8 13 42
v -8 13 41
v -8 18 49
v -8 18 47
v -8 18 43
v -8 18 41
v -8 21 47
v -8 22 47
v -8 22 43
v -9 17 48
v -9 17 47
v -9 18 47
v -9 21 48
v -9 21 47
v -7 1 48
v -7 1 47
v -7 1 43
v -7 1 42
v -7 3 48
v -7 3 47
v -7 3 43
v -7 3 42
v -7 4 47
v -7 4 46
v -7 4 44
v -7 4 43
v -7 8 46
v -7 8 44
v -7 9 46
v -7 9 44
v -7 10 48
v -7 10 47
v -7 10 46
v -7 10 44
v -7 10 43
v -7 10 42
v -7 11 49
v -7 11 48
v -7 11 47
v -7 11 43
v -7 11 42
v -7 11 41
v -7 13 49
v -7 13 48
v -7 13 42
v -7 13 41
v -7 16 47
v -7 17 47
v -7 17 46
v -7 17 44
v -7 17 43
v -7 18 49
v -7 18 47
v -7 18 46
v -7 18 44
v -7 18 43
v -7 18 41
v -6 0 48
v -6 0 47
v -6 0 43
v -6 0 42
v -6 1 48
v -6 1 47
v -6 1 43
v -6 1 42
v -6 9 46
v -6 9 44
v -6 10 48
v -6 10 47
v -6 10 46
v -6 10 45
v -6 10 44
v -6 10 43
v -6 10 42
v -6 11 48
v -6 11 47
v -6 11 46
v -6 11 45
v -6 11 43
v -6 11 42
v -6 12 45
v -6 12 44
v -6 13 45
v -6 13 44
v -6 14 45
v -6 14 44
v -6 15 45
v -6 15 44
v -6 16 47
v -6 16 46
v -6 17 47
v -6 17 46
v -6 17 44
v -6 17 43
v -6 18 47
v -6 18 46
v -6 18 44
v -6 18 43
v -6 19 46
v -6 19 44
v -6 21 48
v -6 21 47
v -6 21 46
v -6 21 44
v -6 22 48
v -6 22 46
v -6 22 44
v -6 22 43
v -5 21 46
v -5 21 44
v -5 22 46
v -5 22 44
v -8 11 49
v -8 13 49
v -8 18 49
v -7 11 49
v -7 13 49
v -7 18 49
v -10 17 48
v -10 22 48
v -9 17 48
v -9 21 48
v -8 0 48
v -8 3 48
v -8 11 48
v -7 1 48
v -7 3 48
v -7 10 48
v -7 11 48
v -6 0 48
v -6 1 48
v -6 10 48
v -6 11 48
v -6 21 48
v -6 22 48
v -10 12 47
v -10 17 47
v -9 11 47
v -9 12 47
v -9 17 47
v -9 18 47
v -8 11 47
v -8 12 47
v -8 18 47
v -8 21 47
v -7 11 47
v -7 16 47
v -7 17 47
v -7 18 47
v -7 21 47
v -6 11 47
v -6 16 47
v -6 17 47
v -6 18 47
v -6 21 47
v -11 12 46
v -11 17 46
v -10 12 46
v -10 17 46
v -7 9 46
v -7 10 46
v -7 17 46
v -7 18 46
v -6 9 46
v -6 10 46
v -6 17 46
v -6 18 46
v -6 21 46
v -6 22 46
v -5 21 46
v -5 22 46
v -8 4 44
v -8 8 44
v -7 4 44
v -7 8 44
v -8 0 43
v -8 3 43
v -8 4 43
v -7 1 43
v -7 3 43
v -7 4 43
v -6 0 43
v -6 1 43
v -10 18 47
v -10 22 47
v -9 18 47
v -9 21 47
v -8 0 47
v -8 3 47
v -8 4 47
v -8 21 47
v -8 22 47
v -7 1 47
v -7 3 47
v -7 4 47
v -6 0 47
v -6 1 47
v -10 17 46
v -10 18 46
v -9 17 46
v -9 18 46
v -8 4 46
v -8 8 46
v -7 4 46
v -7 8 46
v -11 12 44
v -11 17 44
v -10 12 44
v -10 17 44
v -7 9 44
v -7 10 44
v -7 17 44
v -7 18 44
v -6 9 44
v -6 10 44
v -6 17 44
v -6 18 44
v -6 21 44
v -6 22 44
v -5 21 44
v -5 22 44
v -10 12 43
v -10 17 43
v -9 11 43
v -9 12 43
v -9 17 43
v -9 18 43
v -8 11 43
v -8 12 43
v -8 18 43
v -8 22 43
v -7 11 43
v -7 17 43
v -7 18 43
v -7 22 43
v -6 11 43
v -6 17 43
v -6 18 43
v -6 22 43
v -8 0 42
v -8 3 42
v -8 11 42
v -7 1 42
v -7 3 42
v -7 10 42
v -7 11 42
v -6 0 42
v -6 1 42
v -6 10 42
v -6 11 42
v -8 11 41
v -8 13 41
v -8 18 41
v -7 11 41
v -7 13 41
v -7 18 41
v -8 0 48
v -6 0 48
v -8 0 47
v -6 0 47
v -8 0 43
v -6 0 43
v -8 0 42
v -6 0 42
v -8 4 47
v -7 4 47
v -8 4 46
v -7 4 46
v -8 4 44
v -7 4 44
v -8 4 43
v -7 4 43
v -8 8 46
v -7 8 46
v -8 8 44
v -7 8 44
v -7 9 46
v -6 9 46
v -7 9 44
v -6 9 44
v -7 10 48
v -6 10 48
v -7 10 47
v -6 10 47
v -7 10 46
v -6 10 46
v -7 10 44
v -6 10 44
v -7 10 43
v -6 10 43
v -7 10 42
v -6 10 42
v -8 11 49
v -7 11 49
v -8 11 48
v -7 11 48
v -9 11 47
v -8 11 47
v -9 11 43
v -8 11 43
v -8 11 42
v -7 11 42
v -8 11 41
v -7 11 41
v -10 12 47
v -9 12 47
v -11 12 46
v -10 12 46
v -11 12 44
v -10 12 44
v -10 12 43
v -9 12 43
v -10 17 48
v -9 17 48
v -10 17 47
v -9 17 47
v -7 18 47
v -6 18 47
v -7 18 46
v -6 18 46
v -7 18 44
v -6 18 44
v -7 18 43
v -6 18 43
v -9 21 48
v -6 21 48
v -9 21 47
v -8 21 47
v -7 21 47
v -6 21 47
v -6 21 46
v -5 21 46
v -6 21 44
v -5 21 44
v -7 1 48
v -6 1 48
v -7 1 47
v -6 1 47
v -7 1 43
v -6 1 43
v -7 1 42
v -6 1 42
v -7 11 48
v -6 11 48
v -7 11 47
v -6 11 47
v -7 11 43
v -6 11 43
v -7 11 42
v -6 11 42
v -7 17 47
v -6 17 47
v -11 17 46
v -10 17 46
v -9 17 46
v -7 17 46
v -6 17 46
v -11 17 44
v -10 17 44
v -7 17 44
v -6 17 44
v -10 17 43
v -9 17 43
v -7 17 43
v -6 17 43
v -8 18 49
v -7 18 49
v -10 18 47
v -9 18 47
v -8 18 47
v -7 18 47
v -10 18 46
v -9 18 46
v -9 18 43
v -8 18 43
v -7 18 43
v -8 18 41
v -7 18 41
v -10 22 48
v -6 22 48
v -10 22 47
v -8 22 47
v -7 22 47
v -7 22 46
v -6 22 46
v -5 22 46
v -6 22 44
v -5 22 44
v -8 22 43
v -7 22 43
v -6 22 43

# faces
f 3/5/1 2/5/1 1/5/1
f 4/5/1 2/5/1 3/5/1
f 10/6/1 6/6/1 5/6/1
f 11/6/1 6/6/1 10/6/1
f 12/6/1 8/6/1 7/6/1
f 13/6/1 8/6/1 12/6/1
f 14/5/1 11/5/1 10/5/1
f 14/5/1 10/5/1 9/5/1
f 15/5/1 11/5/1 14/5/1
f 16/5/1 14/5/1 9/5/1
f 17/5/1 14/5/1 16/5/1
f 20/2/1 19/2/1 18/2/1
f 21/2/1 19/2/1 20/2/1
f 24/6/1 23/6/1 22/6/1
f 25/6/1 23/6/1 24/6/1
f 30/5/1 27/5/1 26/5/1
f 31/5/1 27/5/1 30/5/1
f 32/5/1 29/5/1 28/5/1
f 33/5/1 29/5/1 32/5/1
f 34/2/1 31/2/1 30/2/1
f 37/2/1 33/2/1 32/2/1
f 38/2/1 35/2/1 34/2/1
f 39/2/1 37/2/1 36/2/1
f 41/2/1 38/2/1 34/2/1
f 41/2/1 39/2/1 38/2/1
f 41/2/1 34/2/1 30/2/1
f 42/2/1 39/2/1 41/2/1
f 43/2/1 37/2/1 39/2/1
f 43/2/1 39/2/1 42/2/1
f 43/2/1 33/2/1 37/2/1
f 44/2/1 33/2/1 43/2/1
f 46/2/1 42/2/1 41/2/1
f 47/2/1 44/2/1 43/2/1
f 48/4/1 41/4/1 40/4/1
f 49/2/1 46/2/1 41/2/1
f 49/4/1 41/4/1 48/4/1
f 50/4/1 45/4/1 44/4/1
f 50/2/1 44/2/1 47/2/1
f 51/4/1 45/4/1 50/4/1
f 52/2/1 49/2/1 48/2/1
f 53/2/1 46/2/1 49/2/1
f 53/2/1 49/2/1 52/2/1
f 54/2/1 50/2/1 47/2/1
f 54/2/1 51/2/1 50/2/1
f 55/2/1 51/2/1 54/2/1
f 56/2/1 54/2/1 53/2/1
f 57/2/1 54/2/1 56/2/1
f 58/2/1 54/2/1 57/2/1
f 59/5/2 60/5/2 61/5/2
f 59/5/2 61/5/2 62/5/2
f 62/5/2 61/5/2 63/5/2
f 64/5/2 65/5/2 68/5/2
f 68/5/2 65/5/2 69/5/2
f 66/5/2 67/5/2 70/5/2
f 70/5/2 67/5/2 71/5/2
f 68/2/2 69/2/2 72/2/2
f 70/2/2 71/2/2 75/2/2
f 72/2/2 73/2/2 76/2/2
f 74/2/2 75/2/2 77/2/2
f 72/2/2 76/2/2 78/2/2
f 76/2/2 77/2/2 78/2/2
f 77/2/2 75/2/2 79/2/2
f 78/2/2 77/2/2 79/2/2
f 72/2/2 78/2/2 80/2/2
f 68/2/2 72/2/2 80/2/2
f 80/2/2 78/2/2 81/2/2
f 81/2/2 78/2/2 82/2/2
f 79/2/2 75/2/2 83/2/2
f 75/2/2 71/2/2 84/2/2
f 83/2/2 75/2/2 84/2/2
f 84/2/2 71/2/2 85/2/2
f 86/4/2 87/4/2 92/4/2
f 87/2/2 88/2/2 93/2/2
f 92/4/2 87/4/2 93/4/2
f 89/2/2 90/2/2 94/2/2
f 90/4/2 91/4/2 94/4/2
f 94/4/2 91/4/2 95/4/2
f 93/2/2 88/2/2 96/2/2
f 92/2/2 93/2/2 96/2/2
f 92/2/2 96/2/2 97/2/2
f 94/2/2 95/2/2 100/2/2
f 89/2/2 94/2/2 100/2/2
f 97/2/2 98/2/2 101/2/2
f 92/2/2 97/2/2 101/2/2
f 101/2/2 98/2/2 102/2/2
f 102/2/2 98/2/2 103/2/2
f 99/2/2 100/2/2 104/2/2
f 100/2/2 95/2/2 105/2/2
f 104/2/2 100/2/2 105/2/2
f 105/2/2 95/2/2 106/2/2
f 107/5/2 108/5/2 111/5/2
f 111/5/2 108/5/2 112/5/2
f 109/5/2 110/5/2 113/5/2
f 113/5/2 110/5/2 114/5/2
f 115/1/2 116/1/2 119/1/2
f 119/1/2 116/1/2 120/1/2
f 120/1/2 116/1/2 121/1/2
f 117/4/2 118/4/2 124/4/2
f 118/1/2 119/1/2 125/1/2
f 124/4/2 118/4/2 125/4/2
f 119/3/2 120/3/2 126/3/2
f 125/1/2 119/1/2 126/1/2
f 120/1/2 121/1/2 127/1/2
f 126/3/2 120/3/2 127/3/2
f 121/1/2 122/1/2 127/1/2
f 122/4/2 123/4/2 128/4/2
f 127/1/2 122/1/2 128/1/2
f 128/4/2 123/4/2 129/4/2
f 126/1/2 127/1/2 130/1/2
f 127/1/2 128/1/2 130/1/2
f 125/1/2 126/1/2 130/1/2
f 130/1/2 128/1/2 131/1/2
f 125/1/2 130/1/2 132/1/2
f 130/4/2 131/4/2 132/4/2
f 131/1/2 128/1/2 133/1/2
f 132/4/2 131/4/2 133/4/2
f 125/1/2 132/1/2 134/1/2
f 132/1/2 133/1/2 134/1/2
f 133/1/2 128/1/2 135/1/2
f 134/1/2 133/1/2 135/1/2
f 125/1/2 134/1/2 136/1/2
f 134/4/2 135/4/2 136/4/2
f 135/1/2 128/1/2 137/1/2
f 136/4/2 135/4/2 137/4/2
f 125/1/2 136/1/2 138/1/2
f 136/1/2 137/1/2 138/1/2
f 138/1/2 137/1/2 139/1/2
f 138/4/2 139/4/2 140/4/2
f 139/1/2 137/1/2 141/1/2
f 140/4/2 139/4/2 141/4/2
f 137/1/2 128/1/2 142/1/2
f 141/1/2 137/1/2 142/1/2
f 142/1/2 128/1/2 143/1/2
f 141/4/2 142/4/2 145/4/2
f 145/4/2 142/4/2 146/4/2
f 144/4/2 145/4/2 148/4/2
f 146/4/2 147/4/2 148/4/2
f 145/4/2 146/4/2 148/4/2
f 148/4/2 147/4/2 149/4/2
f 144/4/2 148/4/2 151/4/2
f 148/7/2 149/7/2 152/7/2
f 151/4/2 148/4/2 152/4/2
f 149/4/2 147/4/2 153/4/2
f 152/7/2 149/7/2 153/7/2
f 151/5/2 152/5/2 154/5/2
f 150/5/2 151/5/2 154/5/2
f 154/5/2 152/5/2 155/5/2
f 153/4/2 147/4/2 156/4/2
f 156/4/2 147/4/2 157/4/2
f 158/5/2 159/5/2 160/5/2
f 160/5/2 159/5/2 161/5/2
f 165/4/3 163/4/3 162/4/3
f 166/2/3 164/2/3 163/2/3
f 166/4/3 163/4/3 165/4/3
f 167/2/3 164/2/3 166/2/3
f 170/5/3 169/5/3 168/5/3
f 171/5/3 169/5/3 170/5/3
f 175/5/3 173/5/3 172/5/3
f 176/2/3 174/2/3 173/2/3
f 176/5/3 173/5/3 175/5/3
f 177/2/3 174/2/3 176/2/3
f 178/2/3 174/2/3 177/2/3
f 179/5/3 175/5/3 172/5/3
f 180/5/3 175/5/3 179/5/3
f 181/4/3 178/4/3 177/4/3
f 182/4/3 178/4/3 181/4/3
f 183/5/3 169/5/3 171/5/3
f 184/5/3 169/5/3 183/5/3
f 188/6/3 186/6/3 185/6/3
f 189/6/3 186/6/3 188/6/3
f 191/2/3 188/2/3 187/2/3
f 192/6/3 190/6/3 189/6/3
f 192/2/3 188/2/3 191/2/3
f 192/6/3 189/6/3 188/6/3
f 193/6/3 190/6/3 192/6/3
f 198/2/3 194/2/3 193/2/3
f 199/2/3 194/2/3 198/2/3
f 200/1/3 196/1/3 195/1/3
f 201/4/3 197/4/3 196/4/3
f 201/1/3 196/1/3 200/1/3
f 202/4/3 197/4/3 201/4/3
f 203/4/3 199/4/3 198/4/3
f 204/4/3 199/4/3 203/4/3
f 207/5/3 206/5/3 205/5/3
f 208/5/3 206/5/3 207/5/3
f 213/1/3 210/1/3 209/1/3
f 214/1/3 210/1/3 213/1/3
f 215/4/3 212/4/3 211/4/3
f 216/4/3 212/4/3 215/4/3
f 219/5/3 218/5/3 217/5/3
f 220/5/3 218/5/3 219/5/3
f 223/2/3 222/2/3 221/2/3
f 224/2/3 222/2/3 223/2/3
f 228/5/3 226/5/3 225/5/3
f 229/2/3 227/2/3 226/2/3
f 229/5/3 226/5/3 228/5/3
f 230/2/3 227/2/3 229/2/3
f 231/5/3 228/5/3 225/5/3
f 232/5/3 228/5/3 231/5/3
f 233/5/4 234/5/4 235/5/4
f 235/5/4 234/5/4 236/5/4
f 236/5/4 234/5/4 240/5/4
f 240/5/4 234/5/4 241/5/4
f 237/5/4 238/5/4 242/5/4
f 238/2/4 239/2/4 243/2/4
f 242/5/4 238/5/4 243/5/4
f 243/2/4 239/2/4 244/2/4
f 237/5/4 242/5/4 245/5/4
f 245/5/4 242/5/4 246/5/4
f 247/5/4 248/5/4 249/5/4
f 249/5/4 248/5/4 250/5/4
f 251/2/4 252/2/4 253/2/4
f 253/2/4 252/2/4 254/2/4
f 255/5/4 256/5/4 257/5/4
f 257/5/4 256/5/4 258/5/4
f 259/1/4 260/1/4 263/1/4
f 263/1/4 260/1/4 264/1/4
f 261/4/4 262/4/4 265/4/4
f 265/4/4 262/4/4 266/4/4
f 267/5/4 268/5/4 269/5/4
f 269/5/4 268/5/4 270/5/4
f 271/6/4 272/6/4 274/6/4
f 274/6/4 272/6/4 275/6/4
f 273/2/4 274/2/4 277/2/4
f 275/6/4 276/6/4 278/6/4
f 277/2/4 274/2/4 278/2/4
f 274/6/4 275/6/4 278/6/4
f 278/6/4 276/6/4 279/6/4
f 279/2/4 280/2/4 283/2/4
f 283/2/4 280/2/4 284/2/4
f 281/1/4 282/1/4 285/1/4
f 285/1/4 282/1/4 286/1/4
f 283/4/4 284/4/4 287/4/4
f 287/4/4 284/4/4 288/4/4
f 289/5/4 290/5/4 292/5/4
f 290/2/4 291/2/4 293/2/4
f 292/5/4 290/5/4 293/5/4
f 293/2/4 291/2/4 294/2/4
f 294/2/4 291/2/4 295/2/4
f 289/5/4 292/5/4 296/5/4
f 296/5/4 292/5/4 297/5/4
f 294/4/4 295/4/4 298/4/4
f 298/4/4 295/4/4 299/4/4
f 300/4/4 301/4/4 303/4/4
f 301/2/4 302/2/4 304/2/4
f 303/4/4 301/4/4 304/4/4
f 304/2/4 302/2/4 305/2/4
f 308/5/5 307/5/5 306/5/5
f 309/5/5 307/5/5 308/5/5
f 312/5/5 311/5/5 310/5/5
f 313/5/5 311/5/5 312/5/5
f 316/2/5 315/2/5 314/2/5
f 317/2/5 315/2/5 316/2/5
f 320/2/5 319/2/5 318/2/5
f 321/2/5 319/2/5 320/2/5
f 324/2/5 323/2/5 322/2/5
f 325/2/5 323/2/5 324/2/5
f 328/1/5 327/1/5 326/1/5
f 329/1/5 327/1/5 328/1/5
f 332/4/5 331/4/5 330/4/5
f 333/4/5 331/4/5 332/4/5
f 334/1/5 333/1/5 332/1/5
f 335/1/5 333/1/5 334/1/5
f 338/1/5 337/1/5 336/1/5
f 339/1/5 337/1/5 338/1/5
f 340/4/5 339/4/5 338/4/5
f 341/4/5 339/4/5 340/4/5
f 344/4/5 343/4/5 342/4/5
f 345/4/5 343/4/5 344/4/5
f 348/2/5 347/2/5 346/2/5
f 349/2/5 347/2/5 348/2/5
f 352/4/5 351/4/5 350/4/5
f 353/4/5 351/4/5 352/4/5
f 357/6/5 355/6/5 354/6/5
f 358/5/5 357/5/5 356/5/5
f 359/6/5 355/6/5 357/6/5
f 359/5/5 357/5/5 358/5/5
f 360/6/5 355/6/5 359/6/5
f 361/6/5 355/6/5 360/6/5
f 364/5/5 363/5/5 362/5/5
f 365/5/5 363/5/5 364/5/5
f 368/4/5 367/4/5 366/4/5
f 369/4/5 367/4/5 368/4/5
f 372/4/5 371/4/5 370/4/5
f 373/4/5 371/4/5 372/4/5
f 376/5/5 375/5/5 374/5/5
f 377/5/5 375/5/5 376/5/5
f 378/5/5 375/5/5 377/5/5
f 379/5/5 375/5/5 378/5/5
f 382/5/5 381/5/5 380/5/5
f 383/5/5 381/5/5 382/5/5
f 384/5/6 385/5/6 386/5/6
f 386/5/6 385/5/6 387/5/6
f 388/5/6 389/5/6 390/5/6
f 390/5/6 389/5/6 391/5/6
f 392/4/6 393/4/6 394/4/6
f 394/4/6 393/4/6 395/4/6
f 396/4/6 397/4/6 398/4/6
f 398/4/6 397/4/6 399/4/6
f 400/4/6 401/4/6 405/4/6
f 405/4/6 401/4/6 406/4/6
f 402/5/6 403/5/6 407/5/6
f 403/6/6 404/6/6 408/6/6
f 407/5/6 403/5/6 408/5/6
f 408/6/6 404/6/6 411/6/6
f 411/6/6 404/6/6 412/6/6
f 409/1/6 410/1/6 413/1/6
f 413/1/6 410/1/6 414/1/6
f 415/2/6 416/2/6 419/2/6
f 419/2/6 416/2/6 420/2/6
f 417/5/6 418/5/6 421/5/6
f 418/6/6 419/6/6 422/6/6
f 421/5/6 418/5/6 422/5/6
f 422/6/6 419/6/6 423/6/6
f 423/6/6 419/6/6 424/6/6
f 424/2/6 425/2/6 426/2/6
f 426/2/6 425/2/6 427/2/6
f 428/5/6 429/5/6 430/5/6
f 430/5/6 429/5/6 431/5/6
f 431/5/6 429/5/6 432/5/6
f 432/5/6 429/5/6 433/5/6
f 431/2/6 432/2/6 433/2/6
f 433/5/6 429/5/6 434/5/6
f 433/4/6 434/4/6 436/4/6
f 434/5/6 435/5/6 436/5/6
f 436/5/6 435/5/6 437/5/6
f 431/2/6 433/2/6 438/2/6
f 433/4/6 436/4/6 439/4/6
f 438/2/6 433/2/6 439/2/6
f 439/4/6 436/4/6 440/4/6
