# MagicaVoxel @ Ephtracy

# material
mtllib astro2.mtl
usemtl palette

# normals
vn -1 0 0
vn 1 0 0
vn 0 0 1
vn 0 0 -1
vn 0 -1 0
vn 0 1 0

# texcoords
vt 0.853516 0.5
vt 0.900391 0.5
vt 0.958984 0.5
vt 0.962891 0.5
vt 0.966797 0.5
vt 0.974609 0.5
vt 0.982422 0.5

# verts
v -43 12 23
v -43 12 21
v -43 17 23
v -43 17 21
v -42 12 24
v -42 12 23
v -42 12 21
v -42 12 20
v -42 17 25
v -42 17 24
v -42 17 23
v -42 17 21
v -42 17 20
v -42 18 24
v -42 18 23
v -42 22 25
v -42 22 24
v -41 11 24
v -41 11 20
v -41 12 24
v -41 12 20
v -41 17 23
v -41 17 20
v -41 18 23
v -41 18 20
v -40 0 25
v -40 0 24
v -40 0 20
v -40 0 19
v -40 3 25
v -40 3 24
v -40 3 20
v -40 3 19
v -40 4 24
v -40 4 23
v -40 4 21
v -40 4 20
v -40 8 23
v -40 8 21
v -40 11 24
v -40 11 20
v -40 11 19
v -40 11 18
v -40 13 19
v -40 13 18
v -40 17 26
v -40 17 25
v -40 18 26
v -40 18 25
v -40 18 24
v -40 18 20
v -40 18 19
v -40 18 18
v -40 21 24
v -40 22 24
v -40 22 20
v -41 17 25
v -41 17 24
v -41 18 24
v -41 21 25
v -41 21 24
v -39 1 25
v -39 1 24
v -39 1 20
v -39 1 19
v -39 3 25
v -39 3 24
v -39 3 20
v -39 3 19
v -39 4 24
v -39 4 23
v -39 4 21
v -39 4 20
v -39 8 23
v -39 8 21
v -39 9 23
v -39 9 21
v -39 10 25
v -39 10 24
v -39 10 23
v -39 10 21
v -39 10 20
v -39 10 19
v -39 11 25
v -39 11 24
v -39 11 20
v -39 11 19
v -39 11 18
v -39 13 19
v -39 13 18
v -39 16 24
v -39 17 25
v -39 17 24
v -39 17 23
v -39 17 21
v -39 17 20
v -39 18 25
v -39 18 24
v -39 18 23
v -39 18 21
v -39 18 20
v -39 18 19
v -39 18 18
v -38 0 25
v -38 0 24
v -38 0 20
v -38 0 19
v -38 1 25
v -38 1 24
v -38 1 20
v -38 1 19
v -38 9 23
v -38 9 21
v -38 10 25
v -38 10 24
v -38 10 23
v -38 10 22
v -38 10 21
v -38 10 20
v -38 10 19
v -38 11 25
v -38 11 24
v -38 11 23
v -38 11 22
v -38 11 20
v -38 11 19
v -38 12 22
v -38 12 21
v -38 13 22
v -38 13 21
v -38 14 22
v -38 14 21
v -38 15 22
v -38 15 21
v -38 16 24
v -38 16 23
v -38 17 24
v -38 17 23
v -38 17 21
v -38 17 20
v -38 18 24
v -38 18 23
v -38 18 21
v -38 18 20
v -38 19 23
v -38 19 21
v -38 21 25
v -38 21 24
v -38 21 23
v -38 21 21
v -38 22 25
v -38 22 23
v -38 22 21
v -38 22 20
v -37 21 23
v -37 21 21
v -37 22 23
v -37 22 21
v -33 17 26
v -33 17 25
v -33 18 26
v -33 18 25
v -40 17 26
v -40 18 26
v -35 17 26
v -35 18 26
v -33 17 26
v -33 18 26
v -42 17 25
v -42 22 25
v -41 17 25
v -41 21 25
v -40 0 25
v -40 3 25
v -40 17 25
v -39 1 25
v -39 3 25
v -39 10 25
v -39 11 25
v -39 17 25
v -38 0 25
v -38 1 25
v -38 10 25
v -38 11 25
v -38 21 25
v -38 22 25
v -42 12 24
v -42 17 24
v -41 11 24
v -41 12 24
v -41 17 24
v -41 18 24
v -40 11 24
v -40 18 24
v -40 21 24
v -39 11 24
v -39 16 24
v -39 17 24
v -39 18 24
v -39 21 24
v -38 11 24
v -38 16 24
v -38 17 24
v -38 18 24
v -38 21 24
v -43 12 23
v -43 17 23
v -42 12 23
v -42 17 23
v -39 9 23
v -39 10 23
v -39 17 23
v -39 18 23
v -38 9 23
v -38 10 23
v -38 17 23
v -38 18 23
v -38 21 23
v -38 22 23
v -37 21 23
v -37 22 23
v -40 4 21
v -40 8 21
v -39 4 21
v -39 8 21
v -40 0 20
v -40 3 20
v -40 4 20
v -39 1 20
v -39 3 20
v -39 4 20
v -38 0 20
v -38 1 20
v -39 17 25
v -39 18 25
v -35 17 25
v -35 18 25
v -33 17 25
v -33 18 25
v -42 18 24
v -42 22 24
v -41 18 24
v -41 21 24
v -40 0 24
v -40 3 24
v -40 4 24
v -40 21 24
v -40 22 24
v -39 1 24
v -39 3 24
v -39 4 24
v -38 0 24
v -38 1 24
v -42 17 23
v -42 18 23
v -41 17 23
v -41 18 23
v -40 4 23
v -40 8 23
v -39 4 23
v -39 8 23
v -43 12 21
v -43 17 21
v -42 12 21
v -42 17 21
v -39 9 21
v -39 10 21
v -39 17 21
v -39 18 21
v -38 9 21
v -38 10 21
v -38 17 21
v -38 18 21
v -38 21 21
v -38 22 21
v -37 21 21
v -37 22 21
v -42 12 20
v -42 17 20
v -41 11 20
v -41 12 20
v -41 17 20
v -41 18 20
v -40 11 20
v -40 18 20
v -40 22 20
v -39 11 20
v -39 17 20
v -39 18 20
v -39 22 20
v -38 11 20
v -38 17 20
v -38 18 20
v -38 22 20
v -40 0 19
v -40 3 19
v -40 11 19
v -39 1 19
v -39 3 19
v -39 10 19
v -39 11 19
v -38 0 19
v -38 1 19
v -38 10 19
v -38 11 19
v -40 11 18
v -40 13 18
v -40 18 18
v -39 11 18
v -39 13 18
v -39 18 18
v -40 0 25
v -38 0 25
v -40 0 24
v -38 0 24
v -40 0 20
v -38 0 20
v -40 0 19
v -38 0 19
v -40 4 24
v -39 4 24
v -40 4 23
v -39 4 23
v -40 4 21
v -39 4 21
v -40 4 20
v -39 4 20
v -40 8 23
v -39 8 23
v -40 8 21
v -39 8 21
v -39 9 23
v -38 9 23
v -39 9 21
v -38 9 21
v -39 10 25
v -38 10 25
v -39 10 24
v -38 10 24
v -39 10 23
v -38 10 23
v -39 10 21
v -38 10 21
v -39 10 20
v -38 10 20
v -39 10 19
v -38 10 19
v -41 11 24
v -40 11 24
v -41 11 20
v -40 11 20
v -40 11 19
v -39 11 19
v -40 11 18
v -39 11 18
v -42 12 24
v -41 12 24
v -43 12 23
v -42 12 23
v -43 12 21
v -42 12 21
v -42 12 20
v -41 12 20
v -40 17 26
v -35 17 26
v -33 17 26
v -42 17 25
v -41 17 25
v -40 17 25
v -39 17 25
v -35 17 25
v -33 17 25
v -42 17 24
v -41 17 24
v -39 18 24
v -38 18 24
v -39 18 23
v -38 18 23
v -39 18 21
v -38 18 21
v -39 18 20
v -38 18 20
v -41 21 25
v -38 21 25
v -41 21 24
v -40 21 24
v -39 21 24
v -38 21 24
v -38 21 23
v -37 21 23
v -38 21 21
v -37 21 21
v -39 1 25
v -38 1 25
v -39 1 24
v -38 1 24
v -39 1 20
v -38 1 20
v -39 1 19
v -38 1 19
v -39 11 25
v -38 11 25
v -39 11 24
v -38 11 24
v -39 11 20
v -38 11 20
v -39 11 19
v -38 11 19
v -39 17 24
v -38 17 24
v -43 17 23
v -42 17 23
v -41 17 23
v -39 17 23
v -38 17 23
v -43 17 21
v -42 17 21
v -39 17 21
v -38 17 21
v -42 17 20
v -41 17 20
v -39 17 20
v -38 17 20
v -40 18 26
v -35 18 26
v -33 18 26
v -40 18 25
v -39 18 25
v -35 18 25
v -33 18 25
v -42 18 24
v -41 18 24
v -40 18 24
v -39 18 24
v -42 18 23
v -41 18 23
v -41 18 20
v -40 18 20
v -39 18 20
v -40 18 19
v -39 18 19
v -40 18 18
v -39 18 18
v -42 22 25
v -38 22 25
v -42 22 24
v -40 22 24
v -39 22 23
v -38 22 23
v -37 22 23
v -38 22 21
v -37 22 21
v -40 22 20
v -39 22 20
v -38 22 20

# faces
f 3/4/1 2/4/1 1/4/1
f 4/4/1 2/4/1 3/4/1
f 10/5/1 6/5/1 5/5/1
f 11/5/1 6/5/1 10/5/1
f 12/5/1 8/5/1 7/5/1
f 13/5/1 8/5/1 12/5/1
f 14/4/1 11/4/1 10/4/1
f 14/4/1 10/4/1 9/4/1
f 15/4/1 11/4/1 14/4/1
f 16/4/1 14/4/1 9/4/1
f 17/4/1 14/4/1 16/4/1
f 20/5/1 19/5/1 18/5/1
f 21/5/1 19/5/1 20/5/1
f 24/5/1 23/5/1 22/5/1
f 25/5/1 23/5/1 24/5/1
f 30/6/1 27/6/1 26/6/1
f 31/6/1 27/6/1 30/6/1
f 32/6/1 29/6/1 28/6/1
f 33/6/1 29/6/1 32/6/1
f 34/4/1 31/4/1 30/4/1
f 37/4/1 33/4/1 32/4/1
f 38/4/1 35/4/1 34/4/1
f 39/4/1 37/4/1 36/4/1
f 40/4/1 38/4/1 34/4/1
f 40/4/1 39/4/1 38/4/1
f 40/4/1 34/4/1 30/4/1
f 41/4/1 37/4/1 39/4/1
f 41/4/1 39/4/1 40/4/1
f 41/4/1 33/4/1 37/4/1
f 42/4/1 33/4/1 41/4/1
f 44/4/1 42/4/1 41/4/1
f 44/6/1 43/6/1 42/6/1
f 45/6/1 43/6/1 44/6/1
f 47/4/1 40/4/1 30/4/1
f 48/5/1 47/5/1 46/5/1
f 49/4/1 40/4/1 47/4/1
f 49/5/1 47/5/1 48/5/1
f 50/4/1 40/4/1 49/4/1
f 51/4/1 44/4/1 41/4/1
f 52/5/1 45/5/1 44/5/1
f 52/4/1 44/4/1 51/4/1
f 53/5/1 45/5/1 52/5/1
f 54/4/1 51/4/1 50/4/1
f 55/4/1 51/4/1 54/4/1
f 56/4/1 51/4/1 55/4/1
f 57/4/2 58/4/2 59/4/2
f 57/4/2 59/4/2 60/4/2
f 60/4/2 59/4/2 61/4/2
f 62/6/2 63/6/2 66/6/2
f 66/6/2 63/6/2 67/6/2
f 64/6/2 65/6/2 68/6/2
f 68/6/2 65/6/2 69/6/2
f 66/4/2 67/4/2 70/4/2
f 68/4/2 69/4/2 73/4/2
f 70/4/2 71/4/2 74/4/2
f 72/4/2 73/4/2 75/4/2
f 70/4/2 74/4/2 76/4/2
f 74/4/2 75/4/2 76/4/2
f 75/4/2 73/4/2 77/4/2
f 76/4/2 75/4/2 77/4/2
f 70/4/2 76/4/2 78/4/2
f 66/4/2 70/4/2 78/4/2
f 78/4/2 76/4/2 79/4/2
f 79/4/2 76/4/2 80/4/2
f 77/4/2 73/4/2 81/4/2
f 73/4/2 69/4/2 82/4/2
f 81/4/2 73/4/2 82/4/2
f 82/4/2 69/4/2 83/4/2
f 86/4/2 87/4/2 89/4/2
f 87/6/2 88/6/2 89/6/2
f 89/6/2 88/6/2 90/6/2
f 84/4/2 85/4/2 91/4/2
f 84/4/2 91/4/2 92/4/2
f 92/4/2 91/4/2 93/4/2
f 86/4/2 89/4/2 96/4/2
f 93/4/2 94/4/2 97/4/2
f 92/4/2 93/4/2 97/4/2
f 97/4/2 94/4/2 98/4/2
f 98/4/2 94/4/2 99/4/2
f 95/4/2 96/4/2 100/4/2
f 96/4/2 89/4/2 101/4/2
f 100/4/2 96/4/2 101/4/2
f 89/5/2 90/5/2 102/5/2
f 101/4/2 89/4/2 102/4/2
f 102/5/2 90/5/2 103/5/2
f 104/6/2 105/6/2 108/6/2
f 108/6/2 105/6/2 109/6/2
f 106/6/2 107/6/2 110/6/2
f 110/6/2 107/6/2 111/6/2
f 112/5/2 113/5/2 116/5/2
f 116/5/2 113/5/2 117/5/2
f 117/5/2 113/5/2 118/5/2
f 114/4/2 115/4/2 121/4/2
f 115/5/2 116/5/2 122/5/2
f 121/4/2 115/4/2 122/4/2
f 116/7/2 117/7/2 123/7/2
f 122/5/2 116/5/2 123/5/2
f 117/5/2 118/5/2 124/5/2
f 123/7/2 117/7/2 124/7/2
f 118/5/2 119/5/2 124/5/2
f 119/4/2 120/4/2 125/4/2
f 124/5/2 119/5/2 125/5/2
f 125/4/2 120/4/2 126/4/2
f 123/5/2 124/5/2 127/5/2
f 124/5/2 125/5/2 127/5/2
f 122/5/2 123/5/2 127/5/2
f 127/5/2 125/5/2 128/5/2
f 122/5/2 127/5/2 129/5/2
f 127/3/2 128/3/2 129/3/2
f 128/5/2 125/5/2 130/5/2
f 129/3/2 128/3/2 130/3/2
f 122/5/2 129/5/2 131/5/2
f 129/5/2 130/5/2 131/5/2
f 130/5/2 125/5/2 132/5/2
f 131/5/2 130/5/2 132/5/2
f 122/5/2 131/5/2 133/5/2
f 131/1/2 132/1/2 133/1/2
f 132/5/2 125/5/2 134/5/2
f 133/1/2 132/1/2 134/1/2
f 122/5/2 133/5/2 135/5/2
f 133/5/2 134/5/2 135/5/2
f 135/5/2 134/5/2 136/5/2
f 135/1/2 136/1/2 137/1/2
f 136/5/2 134/5/2 138/5/2
f 137/1/2 136/1/2 138/1/2
f 134/5/2 125/5/2 139/5/2
f 138/5/2 134/5/2 139/5/2
f 139/5/2 125/5/2 140/5/2
f 138/1/2 139/1/2 142/1/2
f 142/1/2 139/1/2 143/1/2
f 141/3/2 142/3/2 145/3/2
f 143/3/2 144/3/2 145/3/2
f 142/3/2 143/3/2 145/3/2
f 145/3/2 144/3/2 146/3/2
f 141/3/2 145/3/2 148/3/2
f 145/2/2 146/2/2 149/2/2
f 148/3/2 145/3/2 149/3/2
f 146/3/2 144/3/2 150/3/2
f 149/2/2 146/2/2 150/2/2
f 148/4/2 149/4/2 151/4/2
f 147/4/2 148/4/2 151/4/2
f 151/4/2 149/4/2 152/4/2
f 150/3/2 144/3/2 153/3/2
f 153/3/2 144/3/2 154/3/2
f 155/4/2 156/4/2 157/4/2
f 157/4/2 156/4/2 158/4/2
f 159/6/2 160/6/2 161/6/2
f 161/6/2 160/6/2 162/6/2
f 165/5/3 164/5/3 163/5/3
f 166/5/3 164/5/3 165/5/3
f 167/6/3 166/6/3 165/6/3
f 168/6/3 166/6/3 167/6/3
f 171/4/3 170/4/3 169/4/3
f 172/4/3 170/4/3 171/4/3
f 176/6/3 174/6/3 173/6/3
f 177/4/3 175/4/3 174/4/3
f 177/6/3 174/6/3 176/6/3
f 178/4/3 175/4/3 177/4/3
f 179/4/3 175/4/3 178/4/3
f 180/4/3 175/4/3 179/4/3
f 181/6/3 176/6/3 173/6/3
f 182/6/3 176/6/3 181/6/3
f 183/4/3 179/4/3 178/4/3
f 184/4/3 179/4/3 183/4/3
f 185/4/3 170/4/3 172/4/3
f 186/4/3 170/4/3 185/4/3
f 190/5/3 188/5/3 187/5/3
f 191/5/3 188/5/3 190/5/3
f 193/5/3 190/5/3 189/5/3
f 193/5/3 192/5/3 191/5/3
f 193/5/3 191/5/3 190/5/3
f 194/5/3 192/5/3 193/5/3
f 199/4/3 195/4/3 194/4/3
f 200/4/3 195/4/3 199/4/3
f 201/5/3 197/5/3 196/5/3
f 202/1/3 198/1/3 197/1/3
f 202/5/3 197/5/3 201/5/3
f 203/1/3 198/1/3 202/1/3
f 204/3/3 200/3/3 199/3/3
f 205/3/3 200/3/3 204/3/3
f 208/4/3 207/4/3 206/4/3
f 209/4/3 207/4/3 208/4/3
f 214/5/3 211/5/3 210/5/3
f 215/5/3 211/5/3 214/5/3
f 216/1/3 213/1/3 212/1/3
f 217/1/3 213/1/3 216/1/3
f 220/4/3 219/4/3 218/4/3
f 221/4/3 219/4/3 220/4/3
f 224/4/3 223/4/3 222/4/3
f 225/4/3 223/4/3 224/4/3
f 229/6/3 227/6/3 226/6/3
f 230/4/3 228/4/3 227/4/3
f 230/6/3 227/6/3 229/6/3
f 231/4/3 228/4/3 230/4/3
f 232/6/3 229/6/3 226/6/3
f 233/6/3 229/6/3 232/6/3
f 234/5/4 235/5/4 236/5/4
f 236/5/4 235/5/4 237/5/4
f 236/6/4 237/6/4 238/6/4
f 238/6/4 237/6/4 239/6/4
f 240/4/4 241/4/4 242/4/4
f 242/4/4 241/4/4 243/4/4
f 243/4/4 241/4/4 247/4/4
f 247/4/4 241/4/4 248/4/4
f 244/6/4 245/6/4 249/6/4
f 245/4/4 246/4/4 250/4/4
f 249/6/4 245/6/4 250/6/4
f 250/4/4 246/4/4 251/4/4
f 244/6/4 249/6/4 252/6/4
f 252/6/4 249/6/4 253/6/4
f 254/4/4 255/4/4 256/4/4
f 256/4/4 255/4/4 257/4/4
f 258/4/4 259/4/4 260/4/4
f 260/4/4 259/4/4 261/4/4
f 262/4/4 263/4/4 264/4/4
f 264/4/4 263/4/4 265/4/4
f 266/5/4 267/5/4 270/5/4
f 270/5/4 267/5/4 271/5/4
f 268/1/4 269/1/4 272/1/4
f 272/1/4 269/1/4 273/1/4
f 274/4/4 275/4/4 276/4/4
f 276/4/4 275/4/4 277/4/4
f 278/5/4 279/5/4 281/5/4
f 281/5/4 279/5/4 282/5/4
f 280/5/4 281/5/4 284/5/4
f 282/5/4 283/5/4 284/5/4
f 281/5/4 282/5/4 284/5/4
f 284/5/4 283/5/4 285/5/4
f 285/4/4 286/4/4 289/4/4
f 289/4/4 286/4/4 290/4/4
f 287/5/4 288/5/4 291/5/4
f 291/5/4 288/5/4 292/5/4
f 289/3/4 290/3/4 293/3/4
f 293/3/4 290/3/4 294/3/4
f 295/6/4 296/6/4 298/6/4
f 296/4/4 297/4/4 299/4/4
f 298/6/4 296/6/4 299/6/4
f 299/4/4 297/4/4 300/4/4
f 300/4/4 297/4/4 301/4/4
f 295/6/4 298/6/4 302/6/4
f 302/6/4 298/6/4 303/6/4
f 300/4/4 301/4/4 304/4/4
f 304/4/4 301/4/4 305/4/4
f 306/6/4 307/6/4 309/6/4
f 307/5/4 308/5/4 310/5/4
f 309/6/4 307/6/4 310/6/4
f 310/5/4 308/5/4 311/5/4
f 314/6/5 313/6/5 312/6/5
f 315/6/5 313/6/5 314/6/5
f 318/6/5 317/6/5 316/6/5
f 319/6/5 317/6/5 318/6/5
f 322/4/5 321/4/5 320/4/5
f 323/4/5 321/4/5 322/4/5
f 326/4/5 325/4/5 324/4/5
f 327/4/5 325/4/5 326/4/5
f 330/4/5 329/4/5 328/4/5
f 331/4/5 329/4/5 330/4/5
f 334/5/5 333/5/5 332/5/5
f 335/5/5 333/5/5 334/5/5
f 338/4/5 337/4/5 336/4/5
f 339/4/5 337/4/5 338/4/5
f 340/5/5 339/5/5 338/5/5
f 341/5/5 339/5/5 340/5/5
f 344/5/5 343/5/5 342/5/5
f 345/5/5 343/5/5 344/5/5
f 346/4/5 345/4/5 344/4/5
f 347/4/5 345/4/5 346/4/5
f 350/5/5 349/5/5 348/5/5
f 351/5/5 349/5/5 350/5/5
f 354/6/5 353/6/5 352/6/5
f 355/6/5 353/6/5 354/6/5
f 359/5/5 357/5/5 356/5/5
f 360/4/5 359/4/5 358/4/5
f 361/5/5 357/5/5 359/5/5
f 361/4/5 359/4/5 360/4/5
f 362/5/5 357/5/5 361/5/5
f 363/5/5 357/5/5 362/5/5
f 369/5/5 365/5/5 364/5/5
f 370/5/5 365/5/5 369/5/5
f 371/6/5 366/6/5 365/6/5
f 371/5/5 365/5/5 370/5/5
f 372/6/5 366/6/5 371/6/5
f 373/4/5 368/4/5 367/4/5
f 374/4/5 368/4/5 373/4/5
f 377/3/5 376/3/5 375/3/5
f 378/3/5 376/3/5 377/3/5
f 381/3/5 380/3/5 379/3/5
f 382/3/5 380/3/5 381/3/5
f 385/4/5 384/4/5 383/4/5
f 386/4/5 384/4/5 385/4/5
f 387/4/5 384/4/5 386/4/5
f 388/4/5 384/4/5 387/4/5
f 391/4/5 390/4/5 389/4/5
f 392/4/5 390/4/5 391/4/5
f 393/6/6 394/6/6 395/6/6
f 395/6/6 394/6/6 396/6/6
f 397/6/6 398/6/6 399/6/6
f 399/6/6 398/6/6 400/6/6
f 401/4/6 402/4/6 403/4/6
f 403/4/6 402/4/6 404/4/6
f 405/4/6 406/4/6 407/4/6
f 407/4/6 406/4/6 408/4/6
f 409/1/6 410/1/6 414/1/6
f 414/1/6 410/1/6 415/1/6
f 411/4/6 412/4/6 416/4/6
f 412/5/6 413/5/6 417/5/6
f 416/4/6 412/4/6 417/4/6
f 417/5/6 413/5/6 420/5/6
f 420/5/6 413/5/6 421/5/6
f 418/5/6 419/5/6 422/5/6
f 422/5/6 419/5/6 423/5/6
f 424/5/6 425/5/6 427/5/6
f 427/5/6 425/5/6 428/5/6
f 425/6/6 426/6/6 429/6/6
f 428/5/6 425/5/6 429/5/6
f 429/6/6 426/6/6 430/6/6
f 427/4/6 428/4/6 433/4/6
f 433/4/6 428/4/6 434/4/6
f 431/4/6 432/4/6 435/4/6
f 432/5/6 433/5/6 436/5/6
f 435/4/6 432/4/6 436/4/6
f 436/5/6 433/5/6 437/5/6
f 437/5/6 433/5/6 438/5/6
f 438/4/6 439/4/6 440/4/6
f 440/4/6 439/4/6 441/4/6
f 440/5/6 441/5/6 442/5/6
f 442/5/6 441/5/6 443/5/6
f 444/4/6 445/4/6 446/4/6
f 446/4/6 445/4/6 447/4/6
f 447/4/6 445/4/6 448/4/6
f 448/4/6 445/4/6 449/4/6
f 448/3/6 449/3/6 451/3/6
f 449/4/6 450/4/6 451/4/6
f 451/4/6 450/4/6 452/4/6
f 447/4/6 448/4/6 453/4/6
f 448/3/6 451/3/6 454/3/6
f 453/4/6 448/4/6 454/4/6
f 454/3/6 451/3/6 455/3/6
