# MagicaVoxel @ Ephtracy

# material
mtllib astro1.mtl
usemtl palette

# normals
vn -1 0 0
vn 1 0 0
vn 0 0 1
vn 0 0 -1
vn 0 -1 0
vn 0 1 0

# texcoords
vt 0.0175781 0.5
vt 0.0332031 0.5
vt 0.849609 0.5
vt 0.857422 0.5
vt 0.880859 0.5
vt 0.958984 0.5
vt 0.962891 0.5
vt 0.966797 0.5

# verts
v 16 12 -43
v 16 12 -45
v 16 17 -43
v 16 17 -45
v 17 12 -42
v 17 12 -43
v 17 12 -45
v 17 12 -46
v 17 17 -42
v 17 17 -43
v 17 17 -45
v 17 17 -46
v 17 18 -42
v 17 18 -43
v 18 11 -42
v 18 11 -46
v 18 12 -42
v 18 12 -46
v 18 17 -43
v 18 17 -46
v 18 18 -43
v 18 18 -46
v 19 0 -41
v 19 0 -42
v 19 0 -46
v 19 0 -47
v 19 3 -41
v 19 3 -42
v 19 3 -46
v 19 3 -47
v 19 4 -42
v 19 4 -43
v 19 4 -45
v 19 4 -46
v 19 8 -43
v 19 8 -45
v 19 11 -40
v 19 11 -41
v 19 11 -42
v 19 11 -46
v 19 11 -47
v 19 11 -48
v 19 12 -42
v 19 12 -46
v 19 13 -40
v 19 13 -41
v 19 13 -47
v 19 13 -48
v 19 18 -40
v 19 18 -42
v 19 18 -46
v 19 18 -48
v 19 19 -42
v 19 19 -43
v 19 19 -45
v 19 19 -46
v 19 21 -43
v 19 21 -45
v 19 22 -43
v 19 22 -45
v 20 1 -41
v 20 1 -42
v 20 1 -46
v 20 1 -47
v 20 3 -41
v 20 3 -42
v 20 3 -46
v 20 3 -47
v 20 4 -42
v 20 4 -43
v 20 4 -45
v 20 4 -46
v 20 8 -43
v 20 8 -45
v 20 9 -43
v 20 9 -45
v 20 10 -41
v 20 10 -42
v 20 10 -43
v 20 10 -45
v 20 10 -46
v 20 10 -47
v 20 11 -40
v 20 11 -41
v 20 11 -42
v 20 11 -46
v 20 11 -47
v 20 11 -48
v 20 13 -40
v 20 13 -41
v 20 13 -47
v 20 13 -48
v 20 16 -42
v 20 17 -42
v 20 17 -43
v 20 17 -45
v 20 17 -46
v 20 18 -40
v 20 18 -42
v 20 18 -43
v 20 18 -45
v 20 18 -46
v 20 18 -48
v 20 19 -42
v 20 19 -43
v 20 19 -45
v 20 19 -46
v 20 21 -43
v 20 21 -45
v 20 22 -43
v 20 22 -45
v 21 0 -41
v 21 0 -42
v 21 0 -46
v 21 0 -47
v 21 1 -41
v 21 1 -42
v 21 1 -46
v 21 1 -47
v 21 9 -43
v 21 9 -45
v 21 10 -41
v 21 10 -42
v 21 10 -43
v 21 10 -44
v 21 10 -45
v 21 10 -46
v 21 10 -47
v 21 11 -41
v 21 11 -42
v 21 11 -43
v 21 11 -44
v 21 11 -46
v 21 11 -47
v 21 12 -44
v 21 12 -45
v 21 13 -44
v 21 13 -45
v 21 14 -44
v 21 14 -45
v 21 15 -44
v 21 15 -45
v 21 16 -42
v 21 16 -43
v 21 17 -42
v 21 17 -43
v 21 17 -45
v 21 17 -46
v 21 18 -43
v 21 18 -45
v 19 11 -40
v 19 13 -40
v 19 18 -40
v 20 11 -40
v 20 13 -40
v 20 18 -40
v 19 0 -41
v 19 3 -41
v 19 11 -41
v 20 1 -41
v 20 3 -41
v 20 10 -41
v 20 11 -41
v 21 0 -41
v 21 1 -41
v 21 10 -41
v 21 11 -41
v 17 12 -42
v 17 17 -42
v 17 18 -42
v 18 11 -42
v 18 12 -42
v 18 17 -42
v 18 18 -42
v 19 11 -42
v 19 12 -42
v 19 18 -42
v 19 19 -42
v 20 11 -42
v 20 16 -42
v 20 17 -42
v 20 18 -42
v 20 19 -42
v 21 11 -42
v 21 16 -42
v 21 17 -42
v 16 12 -43
v 16 17 -43
v 17 12 -43
v 17 17 -43
v 19 19 -43
v 19 21 -43
v 19 22 -43
v 20 9 -43
v 20 10 -43
v 20 17 -43
v 20 18 -43
v 20 19 -43
v 20 21 -43
v 20 22 -43
v 21 9 -43
v 21 10 -43
v 21 17 -43
v 21 18 -43
v 19 4 -45
v 19 8 -45
v 20 4 -45
v 20 8 -45
v 19 0 -46
v 19 3 -46
v 19 4 -46
v 20 1 -46
v 20 3 -46
v 20 4 -46
v 21 0 -46
v 21 1 -46
v 19 0 -42
v 19 3 -42
v 19 4 -42
v 20 1 -42
v 20 3 -42
v 20 4 -42
v 21 0 -42
v 21 1 -42
v 17 17 -43
v 17 18 -43
v 18 17 -43
v 18 18 -43
v 19 4 -43
v 19 8 -43
v 20 4 -43
v 20 8 -43
v 16 12 -45
v 16 17 -45
v 17 12 -45
v 17 17 -45
v 19 19 -45
v 19 21 -45
v 19 22 -45
v 20 9 -45
v 20 10 -45
v 20 17 -45
v 20 18 -45
v 20 19 -45
v 20 21 -45
v 20 22 -45
v 21 9 -45
v 21 10 -45
v 21 17 -45
v 21 18 -45
v 17 12 -46
v 17 17 -46
v 18 11 -46
v 18 12 -46
v 18 17 -46
v 18 18 -46
v 19 11 -46
v 19 12 -46
v 19 18 -46
v 19 19 -46
v 20 11 -46
v 20 17 -46
v 20 18 -46
v 20 19 -46
v 21 11 -46
v 21 17 -46
v 19 0 -47
v 19 3 -47
v 19 11 -47
v 20 1 -47
v 20 3 -47
v 20 10 -47
v 20 11 -47
v 21 0 -47
v 21 1 -47
v 21 10 -47
v 21 11 -47
v 19 11 -48
v 19 13 -48
v 19 18 -48
v 20 11 -48
v 20 13 -48
v 20 18 -48
v 19 0 -41
v 21 0 -41
v 19 0 -42
v 21 0 -42
v 19 0 -46
v 21 0 -46
v 19 0 -47
v 21 0 -47
v 19 4 -42
v 20 4 -42
v 19 4 -43
v 20 4 -43
v 19 4 -45
v 20 4 -45
v 19 4 -46
v 20 4 -46
v 19 8 -43
v 20 8 -43
v 19 8 -45
v 20 8 -45
v 20 9 -43
v 21 9 -43
v 20 9 -45
v 21 9 -45
v 20 10 -41
v 21 10 -41
v 20 10 -42
v 21 10 -42
v 20 10 -43
v 21 10 -43
v 20 10 -45
v 21 10 -45
v 20 10 -46
v 21 10 -46
v 20 10 -47
v 21 10 -47
v 19 11 -40
v 20 11 -40
v 19 11 -41
v 20 11 -41
v 18 11 -42
v 19 11 -42
v 18 11 -46
v 19 11 -46
v 19 11 -47
v 20 11 -47
v 19 11 -48
v 20 11 -48
v 17 12 -42
v 18 12 -42
v 16 12 -43
v 17 12 -43
v 16 12 -45
v 17 12 -45
v 17 12 -46
v 18 12 -46
v 20 1 -41
v 21 1 -41
v 20 1 -42
v 21 1 -42
v 20 1 -46
v 21 1 -46
v 20 1 -47
v 21 1 -47
v 20 11 -41
v 21 11 -41
v 20 11 -42
v 21 11 -42
v 20 11 -46
v 21 11 -46
v 20 11 -47
v 21 11 -47
v 20 17 -42
v 21 17 -42
v 16 17 -43
v 17 17 -43
v 18 17 -43
v 20 17 -43
v 21 17 -43
v 16 17 -45
v 17 17 -45
v 20 17 -45
v 21 17 -45
v 17 17 -46
v 18 17 -46
v 20 17 -46
v 21 17 -46
v 19 18 -40
v 20 18 -40
v 17 18 -42
v 18 18 -42
v 19 18 -42
v 20 18 -42
v 17 18 -43
v 18 18 -43
v 20 18 -43
v 21 18 -43
v 20 18 -45
v 21 18 -45
v 18 18 -46
v 19 18 -46
v 20 18 -46
v 19 18 -48
v 20 18 -48
v 19 19 -42
v 20 19 -42
v 19 19 -43
v 20 19 -43
v 19 19 -45
v 20 19 -45
v 19 19 -46
v 20 19 -46
v 19 22 -43
v 20 22 -43
v 19 22 -45
v 20 22 -45

# faces
f 3/7/1 2/7/1 1/7/1
f 4/7/1 2/7/1 3/7/1
f 9/8/1 6/8/1 5/8/1
f 10/8/1 6/8/1 9/8/1
f 11/8/1 8/8/1 7/8/1
f 12/8/1 8/8/1 11/8/1
f 13/7/1 10/7/1 9/7/1
f 14/7/1 10/7/1 13/7/1
f 17/4/1 16/4/1 15/4/1
f 18/4/1 16/4/1 17/4/1
f 21/8/1 20/8/1 19/8/1
f 22/8/1 20/8/1 21/8/1
f 27/7/1 24/7/1 23/7/1
f 28/7/1 24/7/1 27/7/1
f 29/7/1 26/7/1 25/7/1
f 30/7/1 26/7/1 29/7/1
f 31/4/1 28/4/1 27/4/1
f 34/4/1 30/4/1 29/4/1
f 35/4/1 32/4/1 31/4/1
f 36/4/1 34/4/1 33/4/1
f 38/4/1 35/4/1 31/4/1
f 38/4/1 36/4/1 35/4/1
f 38/4/1 31/4/1 27/4/1
f 39/4/1 36/4/1 38/4/1
f 40/4/1 34/4/1 36/4/1
f 40/4/1 36/4/1 39/4/1
f 40/4/1 30/4/1 34/4/1
f 41/4/1 30/4/1 40/4/1
f 43/4/1 39/4/1 38/4/1
f 44/4/1 41/4/1 40/4/1
f 45/6/1 38/6/1 37/6/1
f 46/4/1 43/4/1 38/4/1
f 46/6/1 38/6/1 45/6/1
f 47/6/1 42/6/1 41/6/1
f 47/4/1 41/4/1 44/4/1
f 48/6/1 42/6/1 47/6/1
f 49/4/1 46/4/1 45/4/1
f 50/4/1 43/4/1 46/4/1
f 50/4/1 46/4/1 49/4/1
f 51/4/1 47/4/1 44/4/1
f 51/4/1 48/4/1 47/4/1
f 52/4/1 48/4/1 51/4/1
f 53/4/1 51/4/1 50/4/1
f 54/4/1 51/4/1 53/4/1
f 55/4/1 51/4/1 54/4/1
f 56/4/1 51/4/1 55/4/1
f 57/2/1 55/2/1 54/2/1
f 58/2/1 55/2/1 57/2/1
f 59/1/1 58/1/1 57/1/1
f 60/1/1 58/1/1 59/1/1
f 61/7/2 62/7/2 65/7/2
f 65/7/2 62/7/2 66/7/2
f 63/7/2 64/7/2 67/7/2
f 67/7/2 64/7/2 68/7/2
f 65/4/2 66/4/2 69/4/2
f 67/4/2 68/4/2 72/4/2
f 69/4/2 70/4/2 73/4/2
f 71/4/2 72/4/2 74/4/2
f 69/4/2 73/4/2 75/4/2
f 73/4/2 74/4/2 75/4/2
f 74/4/2 72/4/2 76/4/2
f 75/4/2 74/4/2 76/4/2
f 69/4/2 75/4/2 77/4/2
f 65/4/2 69/4/2 77/4/2
f 77/4/2 75/4/2 78/4/2
f 78/4/2 75/4/2 79/4/2
f 76/4/2 72/4/2 80/4/2
f 72/4/2 68/4/2 81/4/2
f 80/4/2 72/4/2 81/4/2
f 81/4/2 68/4/2 82/4/2
f 83/6/2 84/6/2 89/6/2
f 84/4/2 85/4/2 90/4/2
f 89/6/2 84/6/2 90/6/2
f 86/4/2 87/4/2 91/4/2
f 87/6/2 88/6/2 91/6/2
f 91/6/2 88/6/2 92/6/2
f 90/4/2 85/4/2 93/4/2
f 89/4/2 90/4/2 93/4/2
f 89/4/2 93/4/2 94/4/2
f 91/4/2 92/4/2 97/4/2
f 86/4/2 91/4/2 97/4/2
f 94/4/2 95/4/2 98/4/2
f 89/4/2 94/4/2 98/4/2
f 98/4/2 95/4/2 99/4/2
f 99/4/2 95/4/2 100/4/2
f 96/4/2 97/4/2 101/4/2
f 97/4/2 92/4/2 102/4/2
f 101/4/2 97/4/2 102/4/2
f 102/4/2 92/4/2 103/4/2
f 99/4/2 100/4/2 104/4/2
f 100/4/2 101/4/2 104/4/2
f 101/4/2 102/4/2 104/4/2
f 104/4/2 102/4/2 105/4/2
f 105/4/2 102/4/2 106/4/2
f 106/4/2 102/4/2 107/4/2
f 105/2/2 106/2/2 108/2/2
f 108/2/2 106/2/2 109/2/2
f 108/1/2 109/1/2 110/1/2
f 110/1/2 109/1/2 111/1/2
f 112/7/2 113/7/2 116/7/2
f 116/7/2 113/7/2 117/7/2
f 114/7/2 115/7/2 118/7/2
f 118/7/2 115/7/2 119/7/2
f 120/3/2 121/3/2 124/3/2
f 124/3/2 121/3/2 125/3/2
f 125/3/2 121/3/2 126/3/2
f 122/6/2 123/6/2 129/6/2
f 123/3/2 124/3/2 130/3/2
f 129/6/2 123/6/2 130/6/2
f 124/5/2 125/5/2 131/5/2
f 130/3/2 124/3/2 131/3/2
f 125/3/2 126/3/2 132/3/2
f 131/5/2 125/5/2 132/5/2
f 126/3/2 127/3/2 132/3/2
f 127/6/2 128/6/2 133/6/2
f 132/3/2 127/3/2 133/3/2
f 133/6/2 128/6/2 134/6/2
f 131/3/2 132/3/2 135/3/2
f 132/3/2 133/3/2 135/3/2
f 130/3/2 131/3/2 135/3/2
f 135/3/2 133/3/2 136/3/2
f 130/3/2 135/3/2 137/3/2
f 135/6/2 136/6/2 137/6/2
f 136/3/2 133/3/2 138/3/2
f 137/6/2 136/6/2 138/6/2
f 130/3/2 137/3/2 139/3/2
f 137/3/2 138/3/2 139/3/2
f 138/3/2 133/3/2 140/3/2
f 139/3/2 138/3/2 140/3/2
f 130/3/2 139/3/2 141/3/2
f 139/6/2 140/6/2 141/6/2
f 140/3/2 133/3/2 142/3/2
f 141/6/2 140/6/2 142/6/2
f 130/3/2 141/3/2 143/3/2
f 141/3/2 142/3/2 143/3/2
f 143/3/2 142/3/2 144/3/2
f 143/6/2 144/6/2 145/6/2
f 144/3/2 142/3/2 146/3/2
f 145/6/2 144/6/2 146/6/2
f 142/3/2 133/3/2 147/3/2
f 146/3/2 142/3/2 147/3/2
f 147/3/2 133/3/2 148/3/2
f 146/6/2 147/6/2 149/6/2
f 149/6/2 147/6/2 150/6/2
f 154/6/3 152/6/3 151/6/3
f 155/4/3 153/4/3 152/4/3
f 155/6/3 152/6/3 154/6/3
f 156/4/3 153/4/3 155/4/3
f 160/7/3 158/7/3 157/7/3
f 161/4/3 159/4/3 158/4/3
f 161/7/3 158/7/3 160/7/3
f 162/4/3 159/4/3 161/4/3
f 163/4/3 159/4/3 162/4/3
f 164/7/3 160/7/3 157/7/3
f 165/7/3 160/7/3 164/7/3
f 166/6/3 163/6/3 162/6/3
f 167/6/3 163/6/3 166/6/3
f 172/8/3 169/8/3 168/8/3
f 173/7/3 170/7/3 169/7/3
f 173/8/3 169/8/3 172/8/3
f 174/7/3 170/7/3 173/7/3
f 175/4/3 172/4/3 171/4/3
f 176/8/3 173/8/3 172/8/3
f 176/4/3 172/4/3 175/4/3
f 176/8/3 174/8/3 173/8/3
f 177/8/3 174/8/3 176/8/3
f 182/4/3 178/4/3 177/4/3
f 183/4/3 178/4/3 182/4/3
f 184/3/3 180/3/3 179/3/3
f 185/6/3 181/6/3 180/6/3
f 185/3/3 180/3/3 184/3/3
f 186/6/3 181/6/3 185/6/3
f 189/7/3 188/7/3 187/7/3
f 190/7/3 188/7/3 189/7/3
f 198/2/3 192/2/3 191/2/3
f 199/1/3 193/1/3 192/1/3
f 199/2/3 192/2/3 198/2/3
f 200/1/3 193/1/3 199/1/3
f 201/3/3 195/3/3 194/3/3
f 202/3/3 195/3/3 201/3/3
f 203/6/3 197/6/3 196/6/3
f 204/6/3 197/6/3 203/6/3
f 207/4/3 206/4/3 205/4/3
f 208/4/3 206/4/3 207/4/3
f 212/7/3 210/7/3 209/7/3
f 213/4/3 211/4/3 210/4/3
f 213/7/3 210/7/3 212/7/3
f 214/4/3 211/4/3 213/4/3
f 215/7/3 212/7/3 209/7/3
f 216/7/3 212/7/3 215/7/3
f 217/7/4 218/7/4 220/7/4
f 218/4/4 219/4/4 221/4/4
f 220/7/4 218/7/4 221/7/4
f 221/4/4 219/4/4 222/4/4
f 217/7/4 220/7/4 223/7/4
f 223/7/4 220/7/4 224/7/4
f 225/7/4 226/7/4 227/7/4
f 227/7/4 226/7/4 228/7/4
f 229/4/4 230/4/4 231/4/4
f 231/4/4 230/4/4 232/4/4
f 233/7/4 234/7/4 235/7/4
f 235/7/4 234/7/4 236/7/4
f 237/2/4 238/2/4 244/2/4
f 238/1/4 239/1/4 245/1/4
f 244/2/4 238/2/4 245/2/4
f 245/1/4 239/1/4 246/1/4
f 240/3/4 241/3/4 247/3/4
f 247/3/4 241/3/4 248/3/4
f 242/6/4 243/6/4 249/6/4
f 249/6/4 243/6/4 250/6/4
f 251/8/4 252/8/4 254/8/4
f 254/8/4 252/8/4 255/8/4
f 253/4/4 254/4/4 257/4/4
f 255/8/4 256/8/4 258/8/4
f 257/4/4 254/4/4 258/4/4
f 254/8/4 255/8/4 258/8/4
f 258/8/4 256/8/4 259/8/4
f 259/4/4 260/4/4 263/4/4
f 263/4/4 260/4/4 264/4/4
f 261/3/4 262/3/4 265/3/4
f 265/3/4 262/3/4 266/3/4
f 267/7/4 268/7/4 270/7/4
f 268/4/4 269/4/4 271/4/4
f 270/7/4 268/7/4 271/7/4
f 271/4/4 269/4/4 272/4/4
f 272/4/4 269/4/4 273/4/4
f 267/7/4 270/7/4 274/7/4
f 274/7/4 270/7/4 275/7/4
f 272/6/4 273/6/4 276/6/4
f 276/6/4 273/6/4 277/6/4
f 278/6/4 279/6/4 281/6/4
f 279/4/4 280/4/4 282/4/4
f 281/6/4 279/6/4 282/6/4
f 282/4/4 280/4/4 283/4/4
f 286/7/5 285/7/5 284/7/5
f 287/7/5 285/7/5 286/7/5
f 290/7/5 289/7/5 288/7/5
f 291/7/5 289/7/5 290/7/5
f 294/4/5 293/4/5 292/4/5
f 295/4/5 293/4/5 294/4/5
f 298/4/5 297/4/5 296/4/5
f 299/4/5 297/4/5 298/4/5
f 302/4/5 301/4/5 300/4/5
f 303/4/5 301/4/5 302/4/5
f 306/3/5 305/3/5 304/3/5
f 307/3/5 305/3/5 306/3/5
f 310/6/5 309/6/5 308/6/5
f 311/6/5 309/6/5 310/6/5
f 312/3/5 311/3/5 310/3/5
f 313/3/5 311/3/5 312/3/5
f 316/3/5 315/3/5 314/3/5
f 317/3/5 315/3/5 316/3/5
f 318/6/5 317/6/5 316/6/5
f 319/6/5 317/6/5 318/6/5
f 322/6/5 321/6/5 320/6/5
f 323/6/5 321/6/5 322/6/5
f 326/4/5 325/4/5 324/4/5
f 327/4/5 325/4/5 326/4/5
f 330/6/5 329/6/5 328/6/5
f 331/6/5 329/6/5 330/6/5
f 335/8/5 333/8/5 332/8/5
f 336/7/5 335/7/5 334/7/5
f 337/8/5 333/8/5 335/8/5
f 337/7/5 335/7/5 336/7/5
f 338/8/5 333/8/5 337/8/5
f 339/8/5 333/8/5 338/8/5
f 340/7/6 341/7/6 342/7/6
f 342/7/6 341/7/6 343/7/6
f 344/7/6 345/7/6 346/7/6
f 346/7/6 345/7/6 347/7/6
f 348/6/6 349/6/6 350/6/6
f 350/6/6 349/6/6 351/6/6
f 352/6/6 353/6/6 354/6/6
f 354/6/6 353/6/6 355/6/6
f 356/6/6 357/6/6 361/6/6
f 361/6/6 357/6/6 362/6/6
f 358/7/6 359/7/6 363/7/6
f 359/8/6 360/8/6 364/8/6
f 363/7/6 359/7/6 364/7/6
f 364/8/6 360/8/6 367/8/6
f 367/8/6 360/8/6 368/8/6
f 365/3/6 366/3/6 369/3/6
f 369/3/6 366/3/6 370/3/6
f 371/4/6 372/4/6 375/4/6
f 375/4/6 372/4/6 376/4/6
f 373/7/6 374/7/6 377/7/6
f 374/8/6 375/8/6 378/8/6
f 377/7/6 374/7/6 378/7/6
f 379/6/6 380/6/6 381/6/6
f 381/6/6 380/6/6 382/6/6
f 378/8/6 375/8/6 383/8/6
f 383/8/6 375/8/6 384/8/6
f 384/4/6 385/4/6 386/4/6
f 386/4/6 385/4/6 387/4/6
f 388/4/6 389/4/6 390/4/6
f 390/4/6 389/4/6 391/4/6
f 392/4/6 393/4/6 394/4/6
f 394/4/6 393/4/6 395/4/6
f 396/1/6 397/1/6 398/1/6
f 398/1/6 397/1/6 399/1/6
