# Created by Kenney (www.kenney.nl)

mtllib ritual-book.mtl

v 0 0 3.5
v 0 0 -3.5
v -0.9999999 0 3.5
v -0.9999999 0 -3.5
v 0 0.5 -3.5
v 0 0.5 3.5
v -1 0.5 -3.5
v -1 0.5 3.5
v 4 0 3
v 4 0 -3
v 3 0 3
v 3 0 -3
v 3 1 -3
v 3 1 3
v 4 1 -3
v 4 1 3
v 4 -1 4
v 4 -1 -4
v 1 -1 4
v 1 -1 -4
v 1 0 -4
v 1 0 4
v 4 0 -4
v 4 0 4
v 3 0 3.5
v 3 0 -3.5
v 0 1 -3.5
v 0 1 3.5
v 3 1 -3.5
v 3 1 3.5
v 1 -1 3.5
v 1 -1 -3.5
v -1 -1 3.5
v -1 -1 -3.5
v -1 0 -3.5
v -1 0 3.5
v 1 0 -3.5
v 1 0 3.5
v 1 -2 4
v 1 -2 -4
v -1 -2 4
v -1 -2 -4
v -1 -1 -4
v -1 -1 4
v -3 0 3.5
v -3 0 -3.5
v -3 1 -3.5
v -3 1 3.5
v -1 1 -3.5
v -1 1 3.5
v -4 -1 4
v -4 -1 -4
v -4 0 -4
v -4 0 4
v -1 0 -4
v -1 0 4
v -3 0 3
v -3 0 -3
v -4 0 3
v -4 0 -3
v -4 1 -3
v -4 1 3
v -3 1 -3
v -3 1 3

vn 0 -1 0
vn 0 1 0
vn 0 0 -1
vn -1 0 0
vn 0 0 1
vn 1 0 0

vt 0.0625 0.0625
vt 0.1875 0.0625
vt 0.3125 0.0625

usemtl palette(Clone)

f 3/1/1 2/1/1 1/1/1
f 2/1/1 3/1/1 4/1/1
f 7/1/2 6/1/2 5/1/2
f 6/1/2 7/1/2 8/1/2
f 7/1/3 2/1/3 4/1/3
f 2/1/3 7/1/3 5/1/3
f 3/1/4 7/1/4 4/1/4
f 7/1/4 3/1/4 8/1/4
f 1/1/5 8/1/5 3/1/5
f 8/1/5 1/1/5 6/1/5
f 6/1/6 2/1/6 5/1/6
f 2/1/6 6/1/6 1/1/6
f 11/2/1 10/2/1 9/2/1
f 10/2/1 11/2/1 12/2/1
f 11/2/4 13/2/4 12/2/4
f 13/2/4 11/2/4 14/2/4
f 13/2/3 10/2/3 12/2/3
f 10/2/3 13/2/3 15/2/3
f 16/2/5 11/2/5 9/2/5
f 11/2/5 16/2/5 14/2/5
f 16/2/6 10/2/6 15/2/6
f 10/2/6 16/2/6 9/2/6
f 13/2/2 16/2/2 15/2/2
f 16/2/2 13/2/2 14/2/2
f 19/3/1 18/3/1 17/3/1
f 18/3/1 19/3/1 20/3/1
f 19/3/4 21/3/4 20/3/4
f 21/3/4 19/3/4 22/3/4
f 21/3/3 18/3/3 20/3/3
f 18/3/3 21/3/3 23/3/3
f 24/3/5 19/3/5 17/3/5
f 19/3/5 24/3/5 22/3/5
f 24/3/6 18/3/6 23/3/6
f 18/3/6 24/3/6 17/3/6
f 21/3/2 24/3/2 23/3/2
f 24/3/2 21/3/2 22/3/2
f 1/2/1 26/2/1 25/2/1
f 26/2/1 1/2/1 2/2/1
f 1/2/4 27/2/4 2/2/4
f 27/2/4 1/2/4 28/2/4
f 27/2/3 26/2/3 2/2/3
f 26/2/3 27/2/3 29/2/3
f 30/2/5 1/2/5 25/2/5
f 1/2/5 30/2/5 28/2/5
f 30/2/6 26/2/6 29/2/6
f 26/2/6 30/2/6 25/2/6
f 27/2/2 30/2/2 29/2/2
f 30/2/2 27/2/2 28/2/2
f 33/2/1 32/2/1 31/2/1
f 32/2/1 33/2/1 34/2/1
f 33/2/4 35/2/4 34/2/4
f 35/2/4 33/2/4 36/2/4
f 35/2/3 32/2/3 34/2/3
f 32/2/3 35/2/3 37/2/3
f 38/2/5 33/2/5 31/2/5
f 33/2/5 38/2/5 36/2/5
f 38/2/6 32/2/6 37/2/6
f 32/2/6 38/2/6 31/2/6
f 35/2/2 38/2/2 37/2/2
f 38/2/2 35/2/2 36/2/2
f 41/3/1 40/3/1 39/3/1
f 40/3/1 41/3/1 42/3/1
f 41/3/4 43/3/4 42/3/4
f 43/3/4 41/3/4 44/3/4
f 43/3/3 40/3/3 42/3/3
f 40/3/3 43/3/3 20/3/3
f 19/3/5 41/3/5 39/3/5
f 41/3/5 19/3/5 44/3/5
f 19/3/6 40/3/6 20/3/6
f 40/3/6 19/3/6 39/3/6
f 43/3/2 19/3/2 20/3/2
f 19/3/2 43/3/2 44/3/2
f 45/2/1 35/2/1 36/2/1
f 35/2/1 45/2/1 46/2/1
f 45/2/4 47/2/4 46/2/4
f 47/2/4 45/2/4 48/2/4
f 47/2/3 35/2/3 46/2/3
f 35/2/3 47/2/3 49/2/3
f 50/2/5 45/2/5 36/2/5
f 45/2/5 50/2/5 48/2/5
f 50/2/6 35/2/6 49/2/6
f 35/2/6 50/2/6 36/2/6
f 47/2/2 50/2/2 49/2/2
f 50/2/2 47/2/2 48/2/2
f 51/3/1 43/3/1 44/3/1
f 43/3/1 51/3/1 52/3/1
f 51/3/4 53/3/4 52/3/4
f 53/3/4 51/3/4 54/3/4
f 53/3/3 43/3/3 52/3/3
f 43/3/3 53/3/3 55/3/3
f 56/3/5 51/3/5 44/3/5
f 51/3/5 56/3/5 54/3/5
f 56/3/6 43/3/6 55/3/6
f 43/3/6 56/3/6 44/3/6
f 53/3/2 56/3/2 55/3/2
f 56/3/2 53/3/2 54/3/2
f 59/2/1 58/2/1 57/2/1
f 58/2/1 59/2/1 60/2/1
f 59/2/4 61/2/4 60/2/4
f 61/2/4 59/2/4 62/2/4
f 61/2/3 58/2/3 60/2/3
f 58/2/3 61/2/3 63/2/3
f 64/2/5 59/2/5 57/2/5
f 59/2/5 64/2/5 62/2/5
f 64/2/6 58/2/6 63/2/6
f 58/2/6 64/2/6 57/2/6
f 61/2/2 64/2/2 63/2/2
f 64/2/2 61/2/2 62/2/2

