# Created by Kenney (www.kenney.nl)

mtllib candle.mtl

v 0 3 -0.5
v 0.5 3 -0.5
v 0 4 -0.5
v 0.5 4 -0.5
v 0.5 4 0.5
v 0 4 0.5
v 0.5 3 0.5
v 0 3 0.5
v -0.5 3 0.5
v -0.5 3 -0.5
v -0.5 4 -0.5
v -0.5 4 0.5
v 1 -1 1
v 1 -1 -1
v -1 -1 1
v -1 -1 -1
v -1 3 -1
v -1 3 1
v 1 3 -1
v 1 3 1

vn 0 0 -1
vn 0 1 0
vn 0 -1 0
vn -1 0 0
vn 0 0 1
vn 1 0 0

vt 0.0625 0.0625
vt 0.1875 0.0625

usemtl palette(Clone)

f 3/1/1 2/1/1 1/1/1
f 2/1/1 3/1/1 4/1/1
f 3/1/2 5/1/2 4/1/2
f 5/1/2 3/1/2 6/1/2
f 8/1/3 2/1/3 7/1/3
f 2/1/3 8/1/3 1/1/3
f 8/1/4 3/1/4 1/1/4
f 3/1/4 8/1/4 6/1/4
f 7/1/5 6/1/5 8/1/5
f 6/1/5 7/1/5 5/1/5
f 5/1/6 2/1/6 4/1/6
f 2/1/6 5/1/6 7/1/6
f 9/1/3 1/1/3 8/1/3
f 1/1/3 9/1/3 10/1/3
f 11/1/1 1/1/1 10/1/1
f 1/1/1 11/1/1 3/1/1
f 9/1/4 11/1/4 10/1/4
f 11/1/4 9/1/4 12/1/4
f 11/1/2 6/1/2 3/1/2
f 6/1/2 11/1/2 12/1/2
f 8/1/5 12/1/5 9/1/5
f 12/1/5 8/1/5 6/1/5
f 6/1/6 1/1/6 3/1/6
f 1/1/6 6/1/6 8/1/6
f 15/2/3 14/2/3 13/2/3
f 14/2/3 15/2/3 16/2/3
f 15/2/4 17/2/4 16/2/4
f 17/2/4 15/2/4 18/2/4
f 17/2/1 14/2/1 16/2/1
f 14/2/1 17/2/1 19/2/1
f 20/2/5 15/2/5 13/2/5
f 15/2/5 20/2/5 18/2/5
f 20/2/6 14/2/6 19/2/6
f 14/2/6 20/2/6 13/2/6
f 17/2/2 20/2/2 19/2/2
f 20/2/2 17/2/2 18/2/2

