# Created by Kenney (www.kenney.nl)

mtllib iron-fence.mtl

v 4 -3 1
v 4 -3 -1
v 2 -3 1
v 2 -3 -1
v 2 5 -1
v 2 5 1
v 4 5 -1
v 4 5 1
v 2 1 0.5
v 2 1 -0.5
v -4 1 0.5
v -4 1 -0.5
v -4 2 -0.5
v -4 2 0.5
v 2 2 -0.5
v 2 2 0.5
v 2 -3 0.5
v 2 -3 -0.5
v -4 -3 0.5
v -4 -3 -0.5
v -4 -1 -0.5
v -4 -1 0.5
v 2 -1 -0.5
v 2 -1 0.5
v 1 2 0.5
v 1 2 -0.5
v 0 2 0.5
v 0 2 -0.5
v 0 4 -0.5
v 0 4 0.5
v 1 4 -0.5
v 1 4 0.5
v 1 -1 0.5
v 1 -1 -0.5
v 0 -1 0.5
v 0 -1 -0.5
v 0 1 -0.5
v 0 1 0.5
v 1 1 -0.5
v 1 1 0.5
v -2 2 0.5
v -2 2 -0.5
v -3 2 0.5
v -3 2 -0.5
v -3 4 -0.5
v -3 4 0.5
v -2 4 -0.5
v -2 4 0.5
v -2 -1 0.5
v -2 -1 -0.5
v -3 -1 0.5
v -3 -1 -0.5
v -3 1 -0.5
v -3 1 0.5
v -2 1 -0.5
v -2 1 0.5

vn 0 -1 0
vn -1 0 0
vn 0 0 -1
vn 0 0 1
vn 1 0 0
vn 0 1 0

vt 0.0625 0.0625
vt 0.1875 0.0625

usemtl palette(Clone)

f 3/1/1 2/1/1 1/1/1
f 2/1/1 3/1/1 4/1/1
f 3/1/2 5/1/2 4/1/2
f 5/1/2 3/1/2 6/1/2
f 5/1/3 2/1/3 4/1/3
f 2/1/3 5/1/3 7/1/3
f 8/1/4 3/1/4 1/1/4
f 3/1/4 8/1/4 6/1/4
f 8/1/5 2/1/5 7/1/5
f 2/1/5 8/1/5 1/1/5
f 5/1/6 8/1/6 7/1/6
f 8/1/6 5/1/6 6/1/6
f 11/2/1 10/2/1 9/2/1
f 10/2/1 11/2/1 12/2/1
f 11/2/2 13/2/2 12/2/2
f 13/2/2 11/2/2 14/2/2
f 13/2/3 10/2/3 12/2/3
f 10/2/3 13/2/3 15/2/3
f 16/2/4 11/2/4 9/2/4
f 11/2/4 16/2/4 14/2/4
f 16/2/5 10/2/5 15/2/5
f 10/2/5 16/2/5 9/2/5
f 13/2/6 16/2/6 15/2/6
f 16/2/6 13/2/6 14/2/6
f 19/1/1 18/1/1 17/1/1
f 18/1/1 19/1/1 20/1/1
f 19/1/2 21/1/2 20/1/2
f 21/1/2 19/1/2 22/1/2
f 21/1/3 18/1/3 20/1/3
f 18/1/3 21/1/3 23/1/3
f 24/1/4 19/1/4 17/1/4
f 19/1/4 24/1/4 22/1/4
f 24/1/5 18/1/5 23/1/5
f 18/1/5 24/1/5 17/1/5
f 21/1/6 24/1/6 23/1/6
f 24/1/6 21/1/6 22/1/6
f 27/2/1 26/2/1 25/2/1
f 26/2/1 27/2/1 28/2/1
f 27/2/2 29/2/2 28/2/2
f 29/2/2 27/2/2 30/2/2
f 29/2/3 26/2/3 28/2/3
f 26/2/3 29/2/3 31/2/3
f 32/2/4 27/2/4 25/2/4
f 27/2/4 32/2/4 30/2/4
f 32/2/5 26/2/5 31/2/5
f 26/2/5 32/2/5 25/2/5
f 29/2/6 32/2/6 31/2/6
f 32/2/6 29/2/6 30/2/6
f 35/2/1 34/2/1 33/2/1
f 34/2/1 35/2/1 36/2/1
f 35/2/2 37/2/2 36/2/2
f 37/2/2 35/2/2 38/2/2
f 37/2/3 34/2/3 36/2/3
f 34/2/3 37/2/3 39/2/3
f 40/2/4 35/2/4 33/2/4
f 35/2/4 40/2/4 38/2/4
f 40/2/5 34/2/5 39/2/5
f 34/2/5 40/2/5 33/2/5
f 37/2/6 40/2/6 39/2/6
f 40/2/6 37/2/6 38/2/6
f 43/2/1 42/2/1 41/2/1
f 42/2/1 43/2/1 44/2/1
f 43/2/2 45/2/2 44/2/2
f 45/2/2 43/2/2 46/2/2
f 45/2/3 42/2/3 44/2/3
f 42/2/3 45/2/3 47/2/3
f 48/2/4 43/2/4 41/2/4
f 43/2/4 48/2/4 46/2/4
f 48/2/5 42/2/5 47/2/5
f 42/2/5 48/2/5 41/2/5
f 45/2/6 48/2/6 47/2/6
f 48/2/6 45/2/6 46/2/6
f 51/2/1 50/2/1 49/2/1
f 50/2/1 51/2/1 52/2/1
f 51/2/2 53/2/2 52/2/2
f 53/2/2 51/2/2 54/2/2
f 53/2/3 50/2/3 52/2/3
f 50/2/3 53/2/3 55/2/3
f 56/2/4 51/2/4 49/2/4
f 51/2/4 56/2/4 54/2/4
f 56/2/5 50/2/5 55/2/5
f 50/2/5 56/2/5 49/2/5
f 53/2/6 56/2/6 55/2/6
f 56/2/6 53/2/6 54/2/6

