# MagicaVoxel @ Ephtracy

# material
mtllib astro5.mtl
usemtl palette

# normals
vn -1 0 0
vn 1 0 0
vn 0 0 1
vn 0 0 -1
vn 0 -1 0
vn 0 1 0

# texcoords
vt 0.841797 0.5
vt 0.853516 0.5
vt 0.900391 0.5
vt 0.958984 0.5
vt 0.962891 0.5
vt 0.966797 0.5
vt 0.974609 0.5
vt 0.982422 0.5

# verts
v -43 12 -37
v -43 12 -39
v -43 17 -37
v -43 17 -39
v -42 12 -36
v -42 12 -37
v -42 12 -39
v -42 12 -40
v -42 17 -35
v -42 17 -36
v -42 17 -37
v -42 17 -39
v -42 17 -40
v -42 18 -36
v -42 18 -37
v -42 22 -35
v -42 22 -36
v -41 11 -36
v -41 11 -40
v -41 12 -36
v -41 12 -40
v -41 17 -37
v -41 17 -40
v -41 18 -37
v -41 18 -40
v -40 0 -35
v -40 0 -36
v -40 0 -40
v -40 0 -41
v -40 3 -35
v -40 3 -36
v -40 3 -40
v -40 3 -41
v -40 4 -36
v -40 4 -37
v -40 4 -39
v -40 4 -40
v -40 8 -37
v -40 8 -39
v -40 11 -36
v -40 11 -40
v -40 11 -41
v -40 11 -42
v -40 13 -41
v -40 13 -42
v -40 14 -34
v -40 14 -35
v -40 18 -34
v -40 18 -35
v -40 18 -36
v -40 18 -40
v -40 18 -41
v -40 18 -42
v -40 21 -36
v -40 22 -36
v -40 22 -40
v -37 17 -34
v -37 17 -35
v -37 18 -34
v -37 18 -35
v -36 13 -34
v -36 13 -35
v -36 14 -34
v -36 14 -35
v -36 15 -34
v -36 15 -35
v -36 17 -34
v -36 17 -35
v -41 17 -35
v -41 17 -36
v -41 18 -36
v -41 21 -35
v -41 21 -36
v -39 1 -35
v -39 1 -36
v -39 1 -40
v -39 1 -41
v -39 3 -35
v -39 3 -36
v -39 3 -40
v -39 3 -41
v -39 4 -36
v -39 4 -37
v -39 4 -39
v -39 4 -40
v -39 8 -37
v -39 8 -39
v -39 9 -37
v -39 9 -39
v -39 10 -35
v -39 10 -36
v -39 10 -37
v -39 10 -39
v -39 10 -40
v -39 10 -41
v -39 11 -35
v -39 11 -36
v -39 11 -40
v -39 11 -41
v -39 11 -42
v -39 13 -41
v -39 13 -42
v -39 14 -35
v -39 15 -34
v -39 15 -35
v -39 16 -36
v -39 17 -36
v -39 17 -37
v -39 17 -39
v -39 17 -40
v -39 18 -34
v -39 18 -35
v -39 18 -36
v -39 18 -37
v -39 18 -39
v -39 18 -40
v -39 18 -41
v -39 18 -42
v -38 0 -35
v -38 0 -36
v -38 0 -40
v -38 0 -41
v -38 1 -35
v -38 1 -36
v -38 1 -40
v -38 1 -41
v -38 9 -37
v -38 9 -39
v -38 10 -35
v -38 10 -36
v -38 10 -37
v -38 10 -38
v -38 10 -39
v -38 10 -40
v -38 10 -41
v -38 11 -35
v -38 11 -36
v -38 11 -37
v -38 11 -38
v -38 11 -40
v -38 11 -41
v -38 12 -38
v -38 12 -39
v -38 13 -38
v -38 13 -39
v -38 14 -38
v -38 14 -39
v -38 15 -38
v -38 15 -39
v -38 16 -36
v -38 16 -37
v -38 17 -36
v -38 17 -37
v -38 17 -39
v -38 17 -40
v -38 18 -36
v -38 18 -37
v -38 18 -39
v -38 18 -40
v -38 19 -37
v -38 19 -39
v -38 21 -35
v -38 21 -36
v -38 21 -37
v -38 21 -39
v -38 22 -35
v -38 22 -37
v -38 22 -39
v -38 22 -40
v -37 21 -37
v -37 21 -39
v -37 22 -37
v -37 22 -39
v -35 13 -34
v -35 13 -35
v -35 14 -34
v -35 14 -35
v -35 17 -34
v -35 17 -35
v -34 17 -34
v -34 17 -35
v -34 18 -34
v -34 18 -35
v -40 14 -34
v -40 18 -34
v -39 15 -34
v -39 18 -34
v -38 14 -34
v -38 15 -34
v -37 17 -34
v -37 18 -34
v -36 13 -34
v -36 14 -34
v -36 15 -34
v -36 17 -34
v -35 13 -34
v -35 14 -34
v -35 17 -34
v -34 17 -34
v -34 18 -34
v -42 17 -35
v -42 22 -35
v -41 17 -35
v -41 21 -35
v -40 0 -35
v -40 3 -35
v -40 14 -35
v -39 1 -35
v -39 3 -35
v -39 10 -35
v -39 11 -35
v -39 14 -35
v -38 0 -35
v -38 1 -35
v -38 10 -35
v -38 11 -35
v -38 21 -35
v -38 22 -35
v -42 12 -36
v -42 17 -36
v -41 11 -36
v -41 12 -36
v -41 17 -36
v -41 18 -36
v -40 11 -36
v -40 18 -36
v -40 21 -36
v -39 11 -36
v -39 16 -36
v -39 17 -36
v -39 18 -36
v -39 21 -36
v -38 11 -36
v -38 16 -36
v -38 17 -36
v -38 18 -36
v -38 21 -36
v -43 12 -37
v -43 17 -37
v -42 12 -37
v -42 17 -37
v -39 9 -37
v -39 10 -37
v -39 17 -37
v -39 18 -37
v -38 9 -37
v -38 10 -37
v -38 17 -37
v -38 18 -37
v -38 21 -37
v -38 22 -37
v -37 21 -37
v -37 22 -37
v -40 4 -39
v -40 8 -39
v -39 4 -39
v -39 8 -39
v -40 0 -40
v -40 3 -40
v -40 4 -40
v -39 1 -40
v -39 3 -40
v -39 4 -40
v -38 0 -40
v -38 1 -40
v -39 14 -35
v -39 15 -35
v -38 14 -35
v -38 15 -35
v -37 17 -35
v -37 18 -35
v -36 13 -35
v -36 14 -35
v -36 15 -35
v -36 17 -35
v -35 13 -35
v -35 14 -35
v -35 17 -35
v -34 17 -35
v -34 18 -35
v -42 18 -36
v -42 22 -36
v -41 18 -36
v -41 21 -36
v -40 0 -36
v -40 3 -36
v -40 4 -36
v -40 21 -36
v -40 22 -36
v -39 1 -36
v -39 3 -36
v -39 4 -36
v -38 0 -36
v -38 1 -36
v -42 17 -37
v -42 18 -37
v -41 17 -37
v -41 18 -37
v -40 4 -37
v -40 8 -37
v -39 4 -37
v -39 8 -37
v -43 12 -39
v -43 17 -39
v -42 12 -39
v -42 17 -39
v -39 9 -39
v -39 10 -39
v -39 17 -39
v -39 18 -39
v -38 9 -39
v -38 10 -39
v -38 17 -39
v -38 18 -39
v -38 21 -39
v -38 22 -39
v -37 21 -39
v -37 22 -39
v -42 12 -40
v -42 17 -40
v -41 11 -40
v -41 12 -40
v -41 17 -40
v -41 18 -40
v -40 11 -40
v -40 18 -40
v -40 22 -40
v -39 11 -40
v -39 17 -40
v -39 18 -40
v -39 22 -40
v -38 11 -40
v -38 17 -40
v -38 18 -40
v -38 22 -40
v -40 0 -41
v -40 3 -41
v -40 11 -41
v -39 1 -41
v -39 3 -41
v -39 10 -41
v -39 11 -41
v -38 0 -41
v -38 1 -41
v -38 10 -41
v -38 11 -41
v -40 11 -42
v -40 13 -42
v -40 18 -42
v -39 11 -42
v -39 13 -42
v -39 18 -42
v -40 0 -35
v -38 0 -35
v -40 0 -36
v -38 0 -36
v -40 0 -40
v -38 0 -40
v -40 0 -41
v -38 0 -41
v -40 4 -36
v -39 4 -36
v -40 4 -37
v -39 4 -37
v -40 4 -39
v -39 4 -39
v -40 4 -40
v -39 4 -40
v -40 8 -37
v -39 8 -37
v -40 8 -39
v -39 8 -39
v -39 9 -37
v -38 9 -37
v -39 9 -39
v -38 9 -39
v -39 10 -35
v -38 10 -35
v -39 10 -36
v -38 10 -36
v -39 10 -37
v -38 10 -37
v -39 10 -39
v -38 10 -39
v -39 10 -40
v -38 10 -40
v -39 10 -41
v -38 10 -41
v -41 11 -36
v -40 11 -36
v -41 11 -40
v -40 11 -40
v -40 11 -41
v -39 11 -41
v -40 11 -42
v -39 11 -42
v -42 12 -36
v -41 12 -36
v -43 12 -37
v -42 12 -37
v -43 12 -39
v -42 12 -39
v -42 12 -40
v -41 12 -40
v -36 13 -34
v -35 13 -34
v -36 13 -35
v -35 13 -35
v -40 14 -34
v -38 14 -34
v -36 14 -34
v -40 14 -35
v -39 14 -35
v -38 14 -35
v -36 14 -35
v -37 17 -34
v -36 17 -34
v -35 17 -34
v -34 17 -34
v -42 17 -35
v -41 17 -35
v -37 17 -35
v -36 17 -35
v -35 17 -35
v -34 17 -35
v -42 17 -36
v -41 17 -36
v -39 18 -36
v -38 18 -36
v -39 18 -37
v -38 18 -37
v -39 18 -39
v -38 18 -39
v -39 18 -40
v -38 18 -40
v -41 21 -35
v -38 21 -35
v -41 21 -36
v -40 21 -36
v -39 21 -36
v -38 21 -36
v -38 21 -37
v -37 21 -37
v -38 21 -39
v -37 21 -39
v -39 1 -35
v -38 1 -35
v -39 1 -36
v -38 1 -36
v -39 1 -40
v -38 1 -40
v -39 1 -41
v -38 1 -41
v -39 11 -35
v -38 11 -35
v -39 11 -36
v -38 11 -36
v -39 11 -40
v -38 11 -40
v -39 11 -41
v -38 11 -41
v -39 15 -34
v -38 15 -34
v -36 15 -34
v -39 15 -35
v -38 15 -35
v -36 15 -35
v -39 17 -36
v -38 17 -36
v -43 17 -37
v -42 17 -37
v -41 17 -37
v -39 17 -37
v -38 17 -37
v -43 17 -39
v -42 17 -39
v -39 17 -39
v -38 17 -39
v -42 17 -40
v -41 17 -40
v -39 17 -40
v -38 17 -40
v -40 18 -34
v -39 18 -34
v -37 18 -34
v -34 18 -34
v -40 18 -35
v -39 18 -35
v -37 18 -35
v -34 18 -35
v -42 18 -36
v -41 18 -36
v -40 18 -36
v -39 18 -36
v -42 18 -37
v -41 18 -37
v -41 18 -40
v -40 18 -40
v -39 18 -40
v -40 18 -41
v -39 18 -41
v -40 18 -42
v -39 18 -42
v -42 22 -35
v -38 22 -35
v -42 22 -36
v -40 22 -36
v -39 22 -37
v -38 22 -37
v -37 22 -37
v -38 22 -39
v -37 22 -39
v -40 22 -40
v -39 22 -40
v -38 22 -40

# faces
f 3/5/1 2/5/1 1/5/1
f 4/5/1 2/5/1 3/5/1
f 10/6/1 6/6/1 5/6/1
f 11/6/1 6/6/1 10/6/1
f 12/6/1 8/6/1 7/6/1
f 13/6/1 8/6/1 12/6/1
f 14/5/1 11/5/1 10/5/1
f 14/5/1 10/5/1 9/5/1
f 15/5/1 11/5/1 14/5/1
f 16/5/1 14/5/1 9/5/1
f 17/5/1 14/5/1 16/5/1
f 20/6/1 19/6/1 18/6/1
f 21/6/1 19/6/1 20/6/1
f 24/6/1 23/6/1 22/6/1
f 25/6/1 23/6/1 24/6/1
f 30/7/1 27/7/1 26/7/1
f 31/7/1 27/7/1 30/7/1
f 32/7/1 29/7/1 28/7/1
f 33/7/1 29/7/1 32/7/1
f 34/5/1 31/5/1 30/5/1
f 37/5/1 33/5/1 32/5/1
f 38/5/1 35/5/1 34/5/1
f 39/5/1 37/5/1 36/5/1
f 40/5/1 38/5/1 34/5/1
f 40/5/1 39/5/1 38/5/1
f 40/5/1 34/5/1 30/5/1
f 41/5/1 37/5/1 39/5/1
f 41/5/1 39/5/1 40/5/1
f 41/5/1 33/5/1 37/5/1
f 42/5/1 33/5/1 41/5/1
f 44/5/1 42/5/1 41/5/1
f 44/7/1 43/7/1 42/7/1
f 45/7/1 43/7/1 44/7/1
f 47/5/1 40/5/1 30/5/1
f 48/6/1 47/6/1 46/6/1
f 49/5/1 40/5/1 47/5/1
f 49/6/1 47/6/1 48/6/1
f 50/5/1 40/5/1 49/5/1
f 51/5/1 44/5/1 41/5/1
f 52/6/1 45/6/1 44/6/1
f 52/5/1 44/5/1 51/5/1
f 53/6/1 45/6/1 52/6/1
f 54/5/1 51/5/1 50/5/1
f 55/5/1 51/5/1 54/5/1
f 56/5/1 51/5/1 55/5/1
f 59/6/1 58/6/1 57/6/1
f 60/6/1 58/6/1 59/6/1
f 63/1/1 62/1/1 61/1/1
f 64/1/1 62/1/1 63/1/1
f 67/6/1 66/6/1 65/6/1
f 68/6/1 66/6/1 67/6/1
f 69/5/2 70/5/2 71/5/2
f 69/5/2 71/5/2 72/5/2
f 72/5/2 71/5/2 73/5/2
f 74/7/2 75/7/2 78/7/2
f 78/7/2 75/7/2 79/7/2
f 76/7/2 77/7/2 80/7/2
f 80/7/2 77/7/2 81/7/2
f 78/5/2 79/5/2 82/5/2
f 80/5/2 81/5/2 85/5/2
f 82/5/2 83/5/2 86/5/2
f 84/5/2 85/5/2 87/5/2
f 82/5/2 86/5/2 88/5/2
f 86/5/2 87/5/2 88/5/2
f 87/5/2 85/5/2 89/5/2
f 88/5/2 87/5/2 89/5/2
f 82/5/2 88/5/2 90/5/2
f 78/5/2 82/5/2 90/5/2
f 90/5/2 88/5/2 91/5/2
f 91/5/2 88/5/2 92/5/2
f 89/5/2 85/5/2 93/5/2
f 85/5/2 81/5/2 94/5/2
f 93/5/2 85/5/2 94/5/2
f 94/5/2 81/5/2 95/5/2
f 98/5/2 99/5/2 101/5/2
f 99/7/2 100/7/2 101/7/2
f 101/7/2 100/7/2 102/7/2
f 96/5/2 97/5/2 103/5/2
f 103/5/2 97/5/2 105/5/2
f 105/5/2 97/5/2 106/5/2
f 105/5/2 106/5/2 107/5/2
f 98/5/2 101/5/2 110/5/2
f 104/6/2 105/6/2 111/6/2
f 107/5/2 108/5/2 112/5/2
f 111/6/2 105/6/2 112/6/2
f 105/5/2 107/5/2 112/5/2
f 112/5/2 108/5/2 113/5/2
f 113/5/2 108/5/2 114/5/2
f 109/5/2 110/5/2 115/5/2
f 110/5/2 101/5/2 116/5/2
f 115/5/2 110/5/2 116/5/2
f 101/6/2 102/6/2 117/6/2
f 116/5/2 101/5/2 117/5/2
f 117/6/2 102/6/2 118/6/2
f 119/7/2 120/7/2 123/7/2
f 123/7/2 120/7/2 124/7/2
f 121/7/2 122/7/2 125/7/2
f 125/7/2 122/7/2 126/7/2
f 127/6/2 128/6/2 131/6/2
f 131/6/2 128/6/2 132/6/2
f 132/6/2 128/6/2 133/6/2
f 129/5/2 130/5/2 136/5/2
f 130/6/2 131/6/2 137/6/2
f 136/5/2 130/5/2 137/5/2
f 131/8/2 132/8/2 138/8/2
f 137/6/2 131/6/2 138/6/2
f 132/6/2 133/6/2 139/6/2
f 138/8/2 132/8/2 139/8/2
f 133/6/2 134/6/2 139/6/2
f 134/5/2 135/5/2 140/5/2
f 139/6/2 134/6/2 140/6/2
f 140/5/2 135/5/2 141/5/2
f 138/6/2 139/6/2 142/6/2
f 139/6/2 140/6/2 142/6/2
f 137/6/2 138/6/2 142/6/2
f 142/6/2 140/6/2 143/6/2
f 137/6/2 142/6/2 144/6/2
f 142/4/2 143/4/2 144/4/2
f 143/6/2 140/6/2 145/6/2
f 144/4/2 143/4/2 145/4/2
f 137/6/2 144/6/2 146/6/2
f 144/6/2 145/6/2 146/6/2
f 145/6/2 140/6/2 147/6/2
f 146/6/2 145/6/2 147/6/2
f 137/6/2 146/6/2 148/6/2
f 146/2/2 147/2/2 148/2/2
f 147/6/2 140/6/2 149/6/2
f 148/2/2 147/2/2 149/2/2
f 137/6/2 148/6/2 150/6/2
f 148/6/2 149/6/2 150/6/2
f 150/6/2 149/6/2 151/6/2
f 150/2/2 151/2/2 152/2/2
f 151/6/2 149/6/2 153/6/2
f 152/2/2 151/2/2 153/2/2
f 149/6/2 140/6/2 154/6/2
f 153/6/2 149/6/2 154/6/2
f 154/6/2 140/6/2 155/6/2
f 153/2/2 154/2/2 157/2/2
f 157/2/2 154/2/2 158/2/2
f 156/4/2 157/4/2 160/4/2
f 158/4/2 159/4/2 160/4/2
f 157/4/2 158/4/2 160/4/2
f 160/4/2 159/4/2 161/4/2
f 156/4/2 160/4/2 163/4/2
f 160/3/2 161/3/2 164/3/2
f 163/4/2 160/4/2 164/4/2
f 161/4/2 159/4/2 165/4/2
f 164/3/2 161/3/2 165/3/2
f 163/5/2 164/5/2 166/5/2
f 162/5/2 163/5/2 166/5/2
f 166/5/2 164/5/2 167/5/2
f 165/4/2 159/4/2 168/4/2
f 168/4/2 159/4/2 169/4/2
f 170/5/2 171/5/2 172/5/2
f 172/5/2 171/5/2 173/5/2
f 174/1/2 175/1/2 176/1/2
f 176/1/2 175/1/2 177/1/2
f 176/6/2 177/6/2 178/6/2
f 178/6/2 177/6/2 179/6/2
f 180/6/2 181/6/2 182/6/2
f 182/6/2 181/6/2 183/6/2
f 186/6/3 185/6/3 184/6/3
f 187/6/3 185/6/3 186/6/3
f 188/6/3 186/6/3 184/6/3
f 189/6/3 186/6/3 188/6/3
f 193/7/3 189/7/3 188/7/3
f 194/7/3 189/7/3 193/7/3
f 195/6/3 191/6/3 190/6/3
f 196/1/3 193/1/3 192/1/3
f 197/6/3 194/6/3 193/6/3
f 197/1/3 193/1/3 196/1/3
f 197/6/3 195/6/3 194/6/3
f 198/6/3 191/6/3 195/6/3
f 198/6/3 195/6/3 197/6/3
f 199/6/3 191/6/3 198/6/3
f 200/6/3 191/6/3 199/6/3
f 203/5/3 202/5/3 201/5/3
f 204/5/3 202/5/3 203/5/3
f 208/7/3 206/7/3 205/7/3
f 209/5/3 207/5/3 206/5/3
f 209/7/3 206/7/3 208/7/3
f 210/5/3 207/5/3 209/5/3
f 211/5/3 207/5/3 210/5/3
f 212/5/3 207/5/3 211/5/3
f 213/7/3 208/7/3 205/7/3
f 214/7/3 208/7/3 213/7/3
f 215/5/3 211/5/3 210/5/3
f 216/5/3 211/5/3 215/5/3
f 217/5/3 202/5/3 204/5/3
f 218/5/3 202/5/3 217/5/3
f 222/6/3 220/6/3 219/6/3
f 223/6/3 220/6/3 222/6/3
f 225/6/3 222/6/3 221/6/3
f 225/6/3 224/6/3 223/6/3
f 225/6/3 223/6/3 222/6/3
f 226/6/3 224/6/3 225/6/3
f 231/5/3 227/5/3 226/5/3
f 232/5/3 227/5/3 231/5/3
f 233/6/3 229/6/3 228/6/3
f 234/2/3 230/2/3 229/2/3
f 234/6/3 229/6/3 233/6/3
f 235/2/3 230/2/3 234/2/3
f 236/4/3 232/4/3 231/4/3
f 237/4/3 232/4/3 236/4/3
f 240/5/3 239/5/3 238/5/3
f 241/5/3 239/5/3 240/5/3
f 246/6/3 243/6/3 242/6/3
f 247/6/3 243/6/3 246/6/3
f 248/2/3 245/2/3 244/2/3
f 249/2/3 245/2/3 248/2/3
f 252/5/3 251/5/3 250/5/3
f 253/5/3 251/5/3 252/5/3
f 256/5/3 255/5/3 254/5/3
f 257/5/3 255/5/3 256/5/3
f 261/7/3 259/7/3 258/7/3
f 262/5/3 260/5/3 259/5/3
f 262/7/3 259/7/3 261/7/3
f 263/5/3 260/5/3 262/5/3
f 264/7/3 261/7/3 258/7/3
f 265/7/3 261/7/3 264/7/3
f 266/6/4 267/6/4 268/6/4
f 268/6/4 267/6/4 269/6/4
f 268/7/4 269/7/4 273/7/4
f 273/7/4 269/7/4 274/7/4
f 270/6/4 271/6/4 275/6/4
f 272/1/4 273/1/4 276/1/4
f 273/6/4 274/6/4 277/6/4
f 276/1/4 273/1/4 277/1/4
f 274/6/4 275/6/4 277/6/4
f 275/6/4 271/6/4 278/6/4
f 277/6/4 275/6/4 278/6/4
f 278/6/4 271/6/4 279/6/4
f 279/6/4 271/6/4 280/6/4
f 281/5/4 282/5/4 283/5/4
f 283/5/4 282/5/4 284/5/4
f 284/5/4 282/5/4 288/5/4
f 288/5/4 282/5/4 289/5/4
f 285/7/4 286/7/4 290/7/4
f 286/5/4 287/5/4 291/5/4
f 290/7/4 286/7/4 291/7/4
f 291/5/4 287/5/4 292/5/4
f 285/7/4 290/7/4 293/7/4
f 293/7/4 290/7/4 294/7/4
f 295/5/4 296/5/4 297/5/4
f 297/5/4 296/5/4 298/5/4
f 299/5/4 300/5/4 301/5/4
f 301/5/4 300/5/4 302/5/4
f 303/5/4 304/5/4 305/5/4
f 305/5/4 304/5/4 306/5/4
f 307/6/4 308/6/4 311/6/4
f 311/6/4 308/6/4 312/6/4
f 309/2/4 310/2/4 313/2/4
f 313/2/4 310/2/4 314/2/4
f 315/5/4 316/5/4 317/5/4
f 317/5/4 316/5/4 318/5/4
f 319/6/4 320/6/4 322/6/4
f 322/6/4 320/6/4 323/6/4
f 321/6/4 322/6/4 325/6/4
f 323/6/4 324/6/4 325/6/4
f 322/6/4 323/6/4 325/6/4
f 325/6/4 324/6/4 326/6/4
f 326/5/4 327/5/4 330/5/4
f 330/5/4 327/5/4 331/5/4
f 328/6/4 329/6/4 332/6/4
f 332/6/4 329/6/4 333/6/4
f 330/4/4 331/4/4 334/4/4
f 334/4/4 331/4/4 335/4/4
f 336/7/4 337/7/4 339/7/4
f 337/5/4 338/5/4 340/5/4
f 339/7/4 337/7/4 340/7/4
f 340/5/4 338/5/4 341/5/4
f 341/5/4 338/5/4 342/5/4
f 336/7/4 339/7/4 343/7/4
f 343/7/4 339/7/4 344/7/4
f 341/5/4 342/5/4 345/5/4
f 345/5/4 342/5/4 346/5/4
f 347/7/4 348/7/4 350/7/4
f 348/6/4 349/6/4 351/6/4
f 350/7/4 348/7/4 351/7/4
f 351/6/4 349/6/4 352/6/4
f 355/7/5 354/7/5 353/7/5
f 356/7/5 354/7/5 355/7/5
f 359/7/5 358/7/5 357/7/5
f 360/7/5 358/7/5 359/7/5
f 363/5/5 362/5/5 361/5/5
f 364/5/5 362/5/5 363/5/5
f 367/5/5 366/5/5 365/5/5
f 368/5/5 366/5/5 367/5/5
f 371/5/5 370/5/5 369/5/5
f 372/5/5 370/5/5 371/5/5
f 375/6/5 374/6/5 373/6/5
f 376/6/5 374/6/5 375/6/5
f 379/5/5 378/5/5 377/5/5
f 380/5/5 378/5/5 379/5/5
f 381/6/5 380/6/5 379/6/5
f 382/6/5 380/6/5 381/6/5
f 385/6/5 384/6/5 383/6/5
f 386/6/5 384/6/5 385/6/5
f 387/5/5 386/5/5 385/5/5
f 388/5/5 386/5/5 387/5/5
f 391/6/5 390/6/5 389/6/5
f 392/6/5 390/6/5 391/6/5
f 395/7/5 394/7/5 393/7/5
f 396/7/5 394/7/5 395/7/5
f 400/6/5 398/6/5 397/6/5
f 401/5/5 400/5/5 399/5/5
f 402/6/5 398/6/5 400/6/5
f 402/5/5 400/5/5 401/5/5
f 403/6/5 398/6/5 402/6/5
f 404/6/5 398/6/5 403/6/5
f 407/1/5 406/1/5 405/1/5
f 408/1/5 406/1/5 407/1/5
f 412/6/5 410/6/5 409/6/5
f 413/6/5 410/6/5 412/6/5
f 414/7/5 411/7/5 410/7/5
f 414/6/5 410/6/5 413/6/5
f 415/7/5 411/7/5 414/7/5
f 422/6/5 417/6/5 416/6/5
f 423/6/5 417/6/5 422/6/5
f 424/6/5 419/6/5 418/6/5
f 425/6/5 419/6/5 424/6/5
f 426/5/5 421/5/5 420/5/5
f 427/5/5 421/5/5 426/5/5
f 430/4/5 429/4/5 428/4/5
f 431/4/5 429/4/5 430/4/5
f 434/4/5 433/4/5 432/4/5
f 435/4/5 433/4/5 434/4/5
f 438/5/5 437/5/5 436/5/5
f 439/5/5 437/5/5 438/5/5
f 440/5/5 437/5/5 439/5/5
f 441/5/5 437/5/5 440/5/5
f 444/5/5 443/5/5 442/5/5
f 445/5/5 443/5/5 444/5/5
f 446/7/6 447/7/6 448/7/6
f 448/7/6 447/7/6 449/7/6
f 450/7/6 451/7/6 452/7/6
f 452/7/6 451/7/6 453/7/6
f 454/5/6 455/5/6 456/5/6
f 456/5/6 455/5/6 457/5/6
f 458/5/6 459/5/6 460/5/6
f 460/5/6 459/5/6 461/5/6
f 462/6/6 463/6/6 465/6/6
f 463/7/6 464/7/6 466/7/6
f 465/6/6 463/6/6 466/6/6
f 466/7/6 464/7/6 467/7/6
f 468/2/6 469/2/6 473/2/6
f 473/2/6 469/2/6 474/2/6
f 470/5/6 471/5/6 475/5/6
f 471/6/6 472/6/6 476/6/6
f 475/5/6 471/5/6 476/5/6
f 476/6/6 472/6/6 479/6/6
f 479/6/6 472/6/6 480/6/6
f 477/6/6 478/6/6 481/6/6
f 481/6/6 478/6/6 482/6/6
f 483/6/6 484/6/6 487/6/6
f 487/6/6 484/6/6 488/6/6
f 485/6/6 486/6/6 489/6/6
f 489/6/6 486/6/6 490/6/6
f 487/5/6 488/5/6 493/5/6
f 493/5/6 488/5/6 494/5/6
f 491/5/6 492/5/6 495/5/6
f 492/6/6 493/6/6 496/6/6
f 495/5/6 492/5/6 496/5/6
f 496/6/6 493/6/6 497/6/6
f 497/6/6 493/6/6 498/6/6
f 498/5/6 499/5/6 500/5/6
f 500/5/6 499/5/6 501/5/6
f 500/6/6 501/6/6 502/6/6
f 502/6/6 501/6/6 503/6/6
f 504/5/6 505/5/6 506/5/6
f 506/5/6 505/5/6 507/5/6
f 507/5/6 505/5/6 508/5/6
f 508/5/6 505/5/6 509/5/6
f 508/4/6 509/4/6 511/4/6
f 509/5/6 510/5/6 511/5/6
f 511/5/6 510/5/6 512/5/6
f 507/5/6 508/5/6 513/5/6
f 508/4/6 511/4/6 514/4/6
f 513/5/6 508/5/6 514/5/6
f 514/4/6 511/4/6 515/4/6
