# MagicaVoxel @ Ephtracy

# material
mtllib astro1.mtl
usemtl palette

# normals
vn -1 0 0
vn 1 0 0
vn 0 0 1
vn 0 0 -1
vn 0 -1 0
vn 0 1 0

# texcoords
vt 0.853516 0.5
vt 0.900391 0.5
vt 0.958984 0.5
vt 0.962891 0.5
vt 0.966797 0.5
vt 0.974609 0.5
vt 0.982422 0.5

# verts
v -43 12 47
v -43 12 45
v -43 17 47
v -43 17 45
v -42 12 48
v -42 12 47
v -42 12 45
v -42 12 44
v -42 17 49
v -42 17 48
v -42 17 47
v -42 17 45
v -42 17 44
v -42 18 48
v -42 18 47
v -42 22 49
v -42 22 48
v -41 11 48
v -41 11 44
v -41 12 48
v -41 12 44
v -41 17 47
v -41 17 44
v -41 18 47
v -41 18 44
v -40 0 49
v -40 0 48
v -40 0 44
v -40 0 43
v -40 3 49
v -40 3 48
v -40 3 44
v -40 3 43
v -40 4 48
v -40 4 47
v -40 4 45
v -40 4 44
v -40 8 47
v -40 8 45
v -40 11 50
v -40 11 49
v -40 11 48
v -40 11 44
v -40 11 43
v -40 11 42
v -40 13 50
v -40 13 49
v -40 13 43
v -40 13 42
v -40 18 50
v -40 18 49
v -40 18 48
v -40 18 44
v -40 18 43
v -40 18 42
v -40 21 48
v -40 22 48
v -40 22 44
v -41 17 49
v -41 17 48
v -41 18 48
v -41 21 49
v -41 21 48
v -39 1 49
v -39 1 48
v -39 1 44
v -39 1 43
v -39 3 49
v -39 3 48
v -39 3 44
v -39 3 43
v -39 4 48
v -39 4 47
v -39 4 45
v -39 4 44
v -39 8 47
v -39 8 45
v -39 9 47
v -39 9 45
v -39 10 49
v -39 10 48
v -39 10 47
v -39 10 45
v -39 10 44
v -39 10 43
v -39 11 50
v -39 11 49
v -39 11 48
v -39 11 44
v -39 11 43
v -39 11 42
v -39 13 50
v -39 13 49
v -39 13 43
v -39 13 42
v -39 16 48
v -39 17 48
v -39 17 47
v -39 17 45
v -39 17 44
v -39 18 50
v -39 18 49
v -39 18 48
v -39 18 47
v -39 18 45
v -39 18 44
v -39 18 43
v -39 18 42
v -38 0 49
v -38 0 48
v -38 0 44
v -38 0 43
v -38 1 49
v -38 1 48
v -38 1 44
v -38 1 43
v -38 9 47
v -38 9 45
v -38 10 49
v -38 10 48
v -38 10 47
v -38 10 46
v -38 10 45
v -38 10 44
v -38 10 43
v -38 11 49
v -38 11 48
v -38 11 47
v -38 11 46
v -38 11 44
v -38 11 43
v -38 12 46
v -38 12 45
v -38 13 46
v -38 13 45
v -38 14 46
v -38 14 45
v -38 15 46
v -38 15 45
v -38 16 48
v -38 16 47
v -38 17 48
v -38 17 47
v -38 17 45
v -38 17 44
v -38 18 48
v -38 18 47
v -38 18 45
v -38 18 44
v -38 19 47
v -38 19 45
v -38 21 49
v -38 21 48
v -38 21 47
v -38 21 45
v -38 22 49
v -38 22 47
v -38 22 45
v -38 22 44
v -37 21 47
v -37 21 45
v -37 22 47
v -37 22 45
v -40 11 50
v -40 13 50
v -40 18 50
v -39 11 50
v -39 13 50
v -39 18 50
v -42 17 49
v -42 22 49
v -41 17 49
v -41 21 49
v -40 0 49
v -40 3 49
v -40 11 49
v -39 1 49
v -39 3 49
v -39 10 49
v -39 11 49
v -38 0 49
v -38 1 49
v -38 10 49
v -38 11 49
v -38 21 49
v -38 22 49
v -42 12 48
v -42 17 48
v -41 11 48
v -41 12 48
v -41 17 48
v -41 18 48
v -40 11 48
v -40 18 48
v -40 21 48
v -39 11 48
v -39 16 48
v -39 17 48
v -39 18 48
v -39 21 48
v -38 11 48
v -38 16 48
v -38 17 48
v -38 18 48
v -38 21 48
v -43 12 47
v -43 17 47
v -42 12 47
v -42 17 47
v -39 9 47
v -39 10 47
v -39 17 47
v -39 18 47
v -38 9 47
v -38 10 47
v -38 17 47
v -38 18 47
v -38 21 47
v -38 22 47
v -37 21 47
v -37 22 47
v -40 4 45
v -40 8 45
v -39 4 45
v -39 8 45
v -40 0 44
v -40 3 44
v -40 4 44
v -39 1 44
v -39 3 44
v -39 4 44
v -38 0 44
v -38 1 44
v -42 18 48
v -42 22 48
v -41 18 48
v -41 21 48
v -40 0 48
v -40 3 48
v -40 4 48
v -40 21 48
v -40 22 48
v -39 1 48
v -39 3 48
v -39 4 48
v -38 0 48
v -38 1 48
v -42 17 47
v -42 18 47
v -41 17 47
v -41 18 47
v -40 4 47
v -40 8 47
v -39 4 47
v -39 8 47
v -43 12 45
v -43 17 45
v -42 12 45
v -42 17 45
v -39 9 45
v -39 10 45
v -39 17 45
v -39 18 45
v -38 9 45
v -38 10 45
v -38 17 45
v -38 18 45
v -38 21 45
v -38 22 45
v -37 21 45
v -37 22 45
v -42 12 44
v -42 17 44
v -41 11 44
v -41 12 44
v -41 17 44
v -41 18 44
v -40 11 44
v -40 18 44
v -40 22 44
v -39 11 44
v -39 17 44
v -39 18 44
v -39 22 44
v -38 11 44
v -38 17 44
v -38 18 44
v -38 22 44
v -40 0 43
v -40 3 43
v -40 11 43
v -39 1 43
v -39 3 43
v -39 10 43
v -39 11 43
v -38 0 43
v -38 1 43
v -38 10 43
v -38 11 43
v -40 11 42
v -40 13 42
v -40 18 42
v -39 11 42
v -39 13 42
v -39 18 42
v -40 0 49
v -38 0 49
v -40 0 48
v -38 0 48
v -40 0 44
v -38 0 44
v -40 0 43
v -38 0 43
v -40 4 48
v -39 4 48
v -40 4 47
v -39 4 47
v -40 4 45
v -39 4 45
v -40 4 44
v -39 4 44
v -40 8 47
v -39 8 47
v -40 8 45
v -39 8 45
v -39 9 47
v -38 9 47
v -39 9 45
v -38 9 45
v -39 10 49
v -38 10 49
v -39 10 48
v -38 10 48
v -39 10 47
v -38 10 47
v -39 10 45
v -38 10 45
v -39 10 44
v -38 10 44
v -39 10 43
v -38 10 43
v -40 11 50
v -39 11 50
v -40 11 49
v -39 11 49
v -41 11 48
v -40 11 48
v -41 11 44
v -40 11 44
v -40 11 43
v -39 11 43
v -40 11 42
v -39 11 42
v -42 12 48
v -41 12 48
v -43 12 47
v -42 12 47
v -43 12 45
v -42 12 45
v -42 12 44
v -41 12 44
v -42 17 49
v -41 17 49
v -42 17 48
v -41 17 48
v -39 18 48
v -38 18 48
v -39 18 47
v -38 18 47
v -39 18 45
v -38 18 45
v -39 18 44
v -38 18 44
v -41 21 49
v -38 21 49
v -41 21 48
v -40 21 48
v -39 21 48
v -38 21 48
v -38 21 47
v -37 21 47
v -38 21 45
v -37 21 45
v -39 1 49
v -38 1 49
v -39 1 48
v -38 1 48
v -39 1 44
v -38 1 44
v -39 1 43
v -38 1 43
v -39 11 49
v -38 11 49
v -39 11 48
v -38 11 48
v -39 11 44
v -38 11 44
v -39 11 43
v -38 11 43
v -39 17 48
v -38 17 48
v -43 17 47
v -42 17 47
v -41 17 47
v -39 17 47
v -38 17 47
v -43 17 45
v -42 17 45
v -39 17 45
v -38 17 45
v -42 17 44
v -41 17 44
v -39 17 44
v -38 17 44
v -40 18 50
v -39 18 50
v -40 18 49
v -39 18 49
v -42 18 48
v -41 18 48
v -40 18 48
v -39 18 48
v -42 18 47
v -41 18 47
v -41 18 44
v -40 18 44
v -39 18 44
v -40 18 43
v -39 18 43
v -40 18 42
v -39 18 42
v -42 22 49
v -38 22 49
v -42 22 48
v -40 22 48
v -39 22 47
v -38 22 47
v -37 22 47
v -38 22 45
v -37 22 45
v -40 22 44
v -39 22 44
v -38 22 44

# faces
f 3/4/1 2/4/1 1/4/1
f 4/4/1 2/4/1 3/4/1
f 10/5/1 6/5/1 5/5/1
f 11/5/1 6/5/1 10/5/1
f 12/5/1 8/5/1 7/5/1
f 13/5/1 8/5/1 12/5/1
f 14/4/1 11/4/1 10/4/1
f 14/4/1 10/4/1 9/4/1
f 15/4/1 11/4/1 14/4/1
f 16/4/1 14/4/1 9/4/1
f 17/4/1 14/4/1 16/4/1
f 20/5/1 19/5/1 18/5/1
f 21/5/1 19/5/1 20/5/1
f 24/5/1 23/5/1 22/5/1
f 25/5/1 23/5/1 24/5/1
f 30/6/1 27/6/1 26/6/1
f 31/6/1 27/6/1 30/6/1
f 32/6/1 29/6/1 28/6/1
f 33/6/1 29/6/1 32/6/1
f 34/4/1 31/4/1 30/4/1
f 37/4/1 33/4/1 32/4/1
f 38/4/1 35/4/1 34/4/1
f 39/4/1 37/4/1 36/4/1
f 41/4/1 38/4/1 34/4/1
f 41/4/1 39/4/1 38/4/1
f 41/4/1 34/4/1 30/4/1
f 42/4/1 39/4/1 41/4/1
f 43/4/1 37/4/1 39/4/1
f 43/4/1 39/4/1 42/4/1
f 43/4/1 33/4/1 37/4/1
f 44/4/1 33/4/1 43/4/1
f 46/6/1 41/6/1 40/6/1
f 47/4/1 42/4/1 41/4/1
f 47/6/1 41/6/1 46/6/1
f 48/4/1 44/4/1 43/4/1
f 48/6/1 45/6/1 44/6/1
f 49/6/1 45/6/1 48/6/1
f 50/5/1 47/5/1 46/5/1
f 51/4/1 42/4/1 47/4/1
f 51/5/1 47/5/1 50/5/1
f 52/4/1 42/4/1 51/4/1
f 53/4/1 48/4/1 43/4/1
f 54/5/1 49/5/1 48/5/1
f 54/4/1 48/4/1 53/4/1
f 55/5/1 49/5/1 54/5/1
f 56/4/1 53/4/1 52/4/1
f 57/4/1 53/4/1 56/4/1
f 58/4/1 53/4/1 57/4/1
f 59/4/2 60/4/2 61/4/2
f 59/4/2 61/4/2 62/4/2
f 62/4/2 61/4/2 63/4/2
f 64/6/2 65/6/2 68/6/2
f 68/6/2 65/6/2 69/6/2
f 66/6/2 67/6/2 70/6/2
f 70/6/2 67/6/2 71/6/2
f 68/4/2 69/4/2 72/4/2
f 70/4/2 71/4/2 75/4/2
f 72/4/2 73/4/2 76/4/2
f 74/4/2 75/4/2 77/4/2
f 72/4/2 76/4/2 78/4/2
f 76/4/2 77/4/2 78/4/2
f 77/4/2 75/4/2 79/4/2
f 78/4/2 77/4/2 79/4/2
f 72/4/2 78/4/2 80/4/2
f 68/4/2 72/4/2 80/4/2
f 80/4/2 78/4/2 81/4/2
f 81/4/2 78/4/2 82/4/2
f 79/4/2 75/4/2 83/4/2
f 75/4/2 71/4/2 84/4/2
f 83/4/2 75/4/2 84/4/2
f 84/4/2 71/4/2 85/4/2
f 86/6/2 87/6/2 92/6/2
f 87/4/2 88/4/2 93/4/2
f 92/6/2 87/6/2 93/6/2
f 89/4/2 90/4/2 94/4/2
f 90/6/2 91/6/2 94/6/2
f 94/6/2 91/6/2 95/6/2
f 93/4/2 88/4/2 96/4/2
f 93/4/2 96/4/2 97/4/2
f 89/4/2 94/4/2 100/4/2
f 92/5/2 93/5/2 101/5/2
f 97/4/2 98/4/2 102/4/2
f 101/5/2 93/5/2 102/5/2
f 93/4/2 97/4/2 102/4/2
f 102/4/2 98/4/2 103/4/2
f 103/4/2 98/4/2 104/4/2
f 99/4/2 100/4/2 105/4/2
f 100/4/2 94/4/2 106/4/2
f 105/4/2 100/4/2 106/4/2
f 94/5/2 95/5/2 107/5/2
f 106/4/2 94/4/2 107/4/2
f 107/5/2 95/5/2 108/5/2
f 109/6/2 110/6/2 113/6/2
f 113/6/2 110/6/2 114/6/2
f 111/6/2 112/6/2 115/6/2
f 115/6/2 112/6/2 116/6/2
f 117/5/2 118/5/2 121/5/2
f 121/5/2 118/5/2 122/5/2
f 122/5/2 118/5/2 123/5/2
f 119/4/2 120/4/2 126/4/2
f 120/5/2 121/5/2 127/5/2
f 126/4/2 120/4/2 127/4/2
f 121/7/2 122/7/2 128/7/2
f 127/5/2 121/5/2 128/5/2
f 122/5/2 123/5/2 129/5/2
f 128/7/2 122/7/2 129/7/2
f 123/5/2 124/5/2 129/5/2
f 124/4/2 125/4/2 130/4/2
f 129/5/2 124/5/2 130/5/2
f 130/4/2 125/4/2 131/4/2
f 128/5/2 129/5/2 132/5/2
f 129/5/2 130/5/2 132/5/2
f 127/5/2 128/5/2 132/5/2
f 132/5/2 130/5/2 133/5/2
f 127/5/2 132/5/2 134/5/2
f 132/3/2 133/3/2 134/3/2
f 133/5/2 130/5/2 135/5/2
f 134/3/2 133/3/2 135/3/2
f 127/5/2 134/5/2 136/5/2
f 134/5/2 135/5/2 136/5/2
f 135/5/2 130/5/2 137/5/2
f 136/5/2 135/5/2 137/5/2
f 127/5/2 136/5/2 138/5/2
f 136/3/2 137/3/2 138/3/2
f 137/5/2 130/5/2 139/5/2
f 138/3/2 137/3/2 139/3/2
f 127/5/2 138/5/2 140/5/2
f 138/5/2 139/5/2 140/5/2
f 140/5/2 139/5/2 141/5/2
f 140/1/2 141/1/2 142/1/2
f 141/5/2 139/5/2 143/5/2
f 142/1/2 141/1/2 143/1/2
f 139/5/2 130/5/2 144/5/2
f 143/5/2 139/5/2 144/5/2
f 144/5/2 130/5/2 145/5/2
f 143/1/2 144/1/2 147/1/2
f 147/1/2 144/1/2 148/1/2
f 146/3/2 147/3/2 150/3/2
f 148/3/2 149/3/2 150/3/2
f 147/3/2 148/3/2 150/3/2
f 150/3/2 149/3/2 151/3/2
f 146/3/2 150/3/2 153/3/2
f 150/2/2 151/2/2 154/2/2
f 153/3/2 150/3/2 154/3/2
f 151/3/2 149/3/2 155/3/2
f 154/2/2 151/2/2 155/2/2
f 153/4/2 154/4/2 156/4/2
f 152/4/2 153/4/2 156/4/2
f 156/4/2 154/4/2 157/4/2
f 155/3/2 149/3/2 158/3/2
f 158/3/2 149/3/2 159/3/2
f 160/4/2 161/4/2 162/4/2
f 162/4/2 161/4/2 163/4/2
f 167/6/3 165/6/3 164/6/3
f 168/5/3 166/5/3 165/5/3
f 168/6/3 165/6/3 167/6/3
f 169/5/3 166/5/3 168/5/3
f 172/4/3 171/4/3 170/4/3
f 173/4/3 171/4/3 172/4/3
f 177/6/3 175/6/3 174/6/3
f 178/4/3 176/4/3 175/4/3
f 178/6/3 175/6/3 177/6/3
f 179/4/3 176/4/3 178/4/3
f 180/4/3 176/4/3 179/4/3
f 181/6/3 177/6/3 174/6/3
f 182/6/3 177/6/3 181/6/3
f 183/4/3 180/4/3 179/4/3
f 184/4/3 180/4/3 183/4/3
f 185/4/3 171/4/3 173/4/3
f 186/4/3 171/4/3 185/4/3
f 190/5/3 188/5/3 187/5/3
f 191/5/3 188/5/3 190/5/3
f 193/5/3 190/5/3 189/5/3
f 193/5/3 192/5/3 191/5/3
f 193/5/3 191/5/3 190/5/3
f 194/5/3 192/5/3 193/5/3
f 199/4/3 195/4/3 194/4/3
f 200/4/3 195/4/3 199/4/3
f 201/5/3 197/5/3 196/5/3
f 202/1/3 198/1/3 197/1/3
f 202/5/3 197/5/3 201/5/3
f 203/1/3 198/1/3 202/1/3
f 204/3/3 200/3/3 199/3/3
f 205/3/3 200/3/3 204/3/3
f 208/4/3 207/4/3 206/4/3
f 209/4/3 207/4/3 208/4/3
f 214/5/3 211/5/3 210/5/3
f 215/5/3 211/5/3 214/5/3
f 216/1/3 213/1/3 212/1/3
f 217/1/3 213/1/3 216/1/3
f 220/4/3 219/4/3 218/4/3
f 221/4/3 219/4/3 220/4/3
f 224/4/3 223/4/3 222/4/3
f 225/4/3 223/4/3 224/4/3
f 229/6/3 227/6/3 226/6/3
f 230/4/3 228/4/3 227/4/3
f 230/6/3 227/6/3 229/6/3
f 231/4/3 228/4/3 230/4/3
f 232/6/3 229/6/3 226/6/3
f 233/6/3 229/6/3 232/6/3
f 234/4/4 235/4/4 236/4/4
f 236/4/4 235/4/4 237/4/4
f 237/4/4 235/4/4 241/4/4
f 241/4/4 235/4/4 242/4/4
f 238/6/4 239/6/4 243/6/4
f 239/4/4 240/4/4 244/4/4
f 243/6/4 239/6/4 244/6/4
f 244/4/4 240/4/4 245/4/4
f 238/6/4 243/6/4 246/6/4
f 246/6/4 243/6/4 247/6/4
f 248/4/4 249/4/4 250/4/4
f 250/4/4 249/4/4 251/4/4
f 252/4/4 253/4/4 254/4/4
f 254/4/4 253/4/4 255/4/4
f 256/4/4 257/4/4 258/4/4
f 258/4/4 257/4/4 259/4/4
f 260/5/4 261/5/4 264/5/4
f 264/5/4 261/5/4 265/5/4
f 262/1/4 263/1/4 266/1/4
f 266/1/4 263/1/4 267/1/4
f 268/4/4 269/4/4 270/4/4
f 270/4/4 269/4/4 271/4/4
f 272/5/4 273/5/4 275/5/4
f 275/5/4 273/5/4 276/5/4
f 274/5/4 275/5/4 278/5/4
f 276/5/4 277/5/4 278/5/4
f 275/5/4 276/5/4 278/5/4
f 278/5/4 277/5/4 279/5/4
f 279/4/4 280/4/4 283/4/4
f 283/4/4 280/4/4 284/4/4
f 281/5/4 282/5/4 285/5/4
f 285/5/4 282/5/4 286/5/4
f 283/3/4 284/3/4 287/3/4
f 287/3/4 284/3/4 288/3/4
f 289/6/4 290/6/4 292/6/4
f 290/4/4 291/4/4 293/4/4
f 292/6/4 290/6/4 293/6/4
f 293/4/4 291/4/4 294/4/4
f 294/4/4 291/4/4 295/4/4
f 289/6/4 292/6/4 296/6/4
f 296/6/4 292/6/4 297/6/4
f 294/4/4 295/4/4 298/4/4
f 298/4/4 295/4/4 299/4/4
f 300/6/4 301/6/4 303/6/4
f 301/5/4 302/5/4 304/5/4
f 303/6/4 301/6/4 304/6/4
f 304/5/4 302/5/4 305/5/4
f 308/6/5 307/6/5 306/6/5
f 309/6/5 307/6/5 308/6/5
f 312/6/5 311/6/5 310/6/5
f 313/6/5 311/6/5 312/6/5
f 316/4/5 315/4/5 314/4/5
f 317/4/5 315/4/5 316/4/5
f 320/4/5 319/4/5 318/4/5
f 321/4/5 319/4/5 320/4/5
f 324/4/5 323/4/5 322/4/5
f 325/4/5 323/4/5 324/4/5
f 328/5/5 327/5/5 326/5/5
f 329/5/5 327/5/5 328/5/5
f 332/4/5 331/4/5 330/4/5
f 333/4/5 331/4/5 332/4/5
f 334/5/5 333/5/5 332/5/5
f 335/5/5 333/5/5 334/5/5
f 338/5/5 337/5/5 336/5/5
f 339/5/5 337/5/5 338/5/5
f 340/4/5 339/4/5 338/4/5
f 341/4/5 339/4/5 340/4/5
f 344/6/5 343/6/5 342/6/5
f 345/6/5 343/6/5 344/6/5
f 348/5/5 347/5/5 346/5/5
f 349/5/5 347/5/5 348/5/5
f 352/6/5 351/6/5 350/6/5
f 353/6/5 351/6/5 352/6/5
f 357/5/5 355/5/5 354/5/5
f 358/4/5 357/4/5 356/4/5
f 359/5/5 355/5/5 357/5/5
f 359/4/5 357/4/5 358/4/5
f 360/5/5 355/5/5 359/5/5
f 361/5/5 355/5/5 360/5/5
f 364/4/5 363/4/5 362/4/5
f 365/4/5 363/4/5 364/4/5
f 368/3/5 367/3/5 366/3/5
f 369/3/5 367/3/5 368/3/5
f 372/3/5 371/3/5 370/3/5
f 373/3/5 371/3/5 372/3/5
f 376/4/5 375/4/5 374/4/5
f 377/4/5 375/4/5 376/4/5
f 378/4/5 375/4/5 377/4/5
f 379/4/5 375/4/5 378/4/5
f 382/4/5 381/4/5 380/4/5
f 383/4/5 381/4/5 382/4/5
f 384/6/6 385/6/6 386/6/6
f 386/6/6 385/6/6 387/6/6
f 388/6/6 389/6/6 390/6/6
f 390/6/6 389/6/6 391/6/6
f 392/4/6 393/4/6 394/4/6
f 394/4/6 393/4/6 395/4/6
f 396/4/6 397/4/6 398/4/6
f 398/4/6 397/4/6 399/4/6
f 400/1/6 401/1/6 405/1/6
f 405/1/6 401/1/6 406/1/6
f 402/4/6 403/4/6 407/4/6
f 403/5/6 404/5/6 408/5/6
f 407/4/6 403/4/6 408/4/6
f 408/5/6 404/5/6 411/5/6
f 411/5/6 404/5/6 412/5/6
f 409/5/6 410/5/6 413/5/6
f 413/5/6 410/5/6 414/5/6
f 415/5/6 416/5/6 417/5/6
f 417/5/6 416/5/6 418/5/6
f 417/4/6 418/4/6 421/4/6
f 421/4/6 418/4/6 422/4/6
f 419/4/6 420/4/6 423/4/6
f 420/5/6 421/5/6 424/5/6
f 423/4/6 420/4/6 424/4/6
f 424/5/6 421/5/6 425/5/6
f 425/5/6 421/5/6 426/5/6
f 426/4/6 427/4/6 428/4/6
f 428/4/6 427/4/6 429/4/6
f 428/5/6 429/5/6 430/5/6
f 430/5/6 429/5/6 431/5/6
f 432/4/6 433/4/6 434/4/6
f 434/4/6 433/4/6 435/4/6
f 435/4/6 433/4/6 436/4/6
f 436/4/6 433/4/6 437/4/6
f 436/3/6 437/3/6 439/3/6
f 437/4/6 438/4/6 439/4/6
f 439/4/6 438/4/6 440/4/6
f 435/4/6 436/4/6 441/4/6
f 436/3/6 439/3/6 442/3/6
f 441/4/6 436/4/6 442/4/6
f 442/3/6 439/3/6 443/3/6
