# Blender v2.93.0 OBJ File: ''
# www.blender.org
mtllib TVS_VoxelKnights_Arrow.mtl
o VS_Knights_Props_Arrow_001
v -0.050000 -0.050000 0.730000
v -0.050000 -0.150000 0.530000
v -0.050000 -0.150000 0.730000
v -0.050000 -0.050000 0.530000
v -0.050000 -0.050000 -0.570000
v -0.050000 -0.150000 -0.770000
v -0.050000 -0.150000 -0.570000
v -0.050000 -0.050000 -0.670000
v -0.050000 -0.050000 -0.770000
v -0.050000 0.050000 0.830000
v -0.050000 -0.050000 0.830000
v -0.050000 0.050000 0.730000
v -0.050000 0.050000 0.530000
v -0.050000 0.050000 -0.570000
v -0.050000 0.050000 -0.670000
v -0.050000 0.150000 0.730000
v -0.050000 0.150000 0.530000
v -0.050000 0.150000 -0.570000
v -0.050000 0.050000 -0.770000
v -0.050000 0.150000 -0.770000
v 0.050000 -0.150000 0.730000
v 0.050000 -0.150000 0.530000
v 0.050000 -0.050000 0.730000
v 0.050000 -0.050000 0.530000
v 0.050000 -0.150000 -0.570000
v 0.050000 -0.150000 -0.770000
v 0.050000 -0.050000 -0.570000
v 0.050000 -0.050000 -0.670000
v 0.050000 -0.050000 -0.770000
v 0.050000 -0.050000 0.830000
v 0.050000 0.050000 0.830000
v 0.050000 0.050000 0.730000
v 0.050000 0.050000 0.530000
v 0.050000 0.050000 -0.570000
v 0.050000 0.050000 -0.670000
v 0.050000 0.150000 0.730000
v 0.050000 0.150000 0.530000
v 0.050000 0.050000 -0.770000
v 0.050000 0.150000 -0.570000
v 0.050000 0.150000 -0.770000
v 0.050000 -0.050000 0.830000
v -0.050000 0.050000 0.830000
v -0.050000 -0.050000 0.830000
v 0.050000 0.050000 0.830000
v 0.050000 -0.150000 0.730000
v -0.050000 -0.050000 0.730000
v -0.050000 -0.150000 0.730000
v 0.050000 -0.050000 0.730000
v 0.050000 0.050000 0.730000
v -0.050000 0.150000 0.730000
v -0.050000 0.050000 0.730000
v 0.050000 0.150000 0.730000
v 0.050000 -0.150000 -0.570000
v -0.050000 -0.050000 -0.570000
v -0.050000 -0.150000 -0.570000
v 0.050000 -0.050000 -0.570000
v 0.050000 0.050000 -0.570000
v -0.050000 0.150000 -0.570000
v -0.050000 0.050000 -0.570000
v 0.050000 0.150000 -0.570000
v -0.050000 -0.150000 0.530000
v -0.050000 -0.050000 0.530000
v 0.050000 -0.150000 0.530000
v 0.050000 -0.050000 0.530000
v -0.050000 0.050000 0.530000
v -0.050000 0.150000 0.530000
v 0.050000 0.050000 0.530000
v 0.050000 0.150000 0.530000
v -0.050000 -0.050000 -0.670000
v -0.050000 0.050000 -0.670000
v 0.050000 -0.050000 -0.670000
v 0.050000 0.050000 -0.670000
v -0.050000 -0.150000 -0.770000
v -0.050000 -0.050000 -0.770000
v 0.050000 -0.150000 -0.770000
v 0.050000 -0.050000 -0.770000
v -0.050000 0.050000 -0.770000
v -0.050000 0.150000 -0.770000
v 0.050000 0.050000 -0.770000
v 0.050000 0.150000 -0.770000
v -0.050000 -0.150000 0.530000
v 0.050000 -0.150000 0.730000
v -0.050000 -0.150000 0.730000
v 0.050000 -0.150000 0.530000
v -0.050000 -0.150000 -0.770000
v 0.050000 -0.150000 -0.570000
v -0.050000 -0.150000 -0.570000
v 0.050000 -0.150000 -0.770000
v -0.050000 -0.050000 0.730000
v 0.050000 -0.050000 0.830000
v -0.050000 -0.050000 0.830000
v 0.050000 -0.050000 0.730000
v -0.050000 -0.050000 -0.570000
v 0.050000 -0.050000 0.530000
v -0.050000 -0.050000 0.530000
v 0.050000 -0.050000 -0.570000
v -0.050000 0.050000 -0.770000
v 0.050000 0.050000 -0.670000
v -0.050000 0.050000 -0.670000
v 0.050000 0.050000 -0.770000
v -0.050000 -0.050000 -0.670000
v 0.050000 -0.050000 -0.670000
v -0.050000 -0.050000 -0.770000
v 0.050000 -0.050000 -0.770000
v -0.050000 0.050000 0.830000
v 0.050000 0.050000 0.830000
v -0.050000 0.050000 0.730000
v 0.050000 0.050000 0.730000
v -0.050000 0.050000 0.530000
v 0.050000 0.050000 0.530000
v -0.050000 0.050000 -0.570000
v 0.050000 0.050000 -0.570000
v -0.050000 0.150000 0.730000
v 0.050000 0.150000 0.730000
v -0.050000 0.150000 0.530000
v 0.050000 0.150000 0.530000
v -0.050000 0.150000 -0.570000
v 0.050000 0.150000 -0.570000
v -0.050000 0.150000 -0.770000
v 0.050000 0.150000 -0.770000
vt 0.017578 0.500000
vt 0.017578 0.500000
vt 0.017578 0.500000
vt 0.017578 0.500000
vt 0.123047 0.500000
vt 0.123047 0.500000
vt 0.123047 0.500000
vt 0.123047 0.500000
vt 0.123047 0.500000
vt 0.017578 0.500000
vt 0.017578 0.500000
vt 0.025391 0.500000
vt 0.025391 0.500000
vt 0.025391 0.500000
vt 0.017578 0.500000
vt 0.119141 0.500000
vt 0.119141 0.500000
vt 0.119141 0.500000
vt 0.025391 0.500000
vt 0.119141 0.500000
vt 0.119141 0.500000
vt 0.119141 0.500000
vt 0.017578 0.500000
vt 0.017578 0.500000
vt 0.017578 0.500000
vt 0.123047 0.500000
vt 0.123047 0.500000
vt 0.123047 0.500000
vt 0.123047 0.500000
vt 0.123047 0.500000
vt 0.017578 0.500000
vt 0.017578 0.500000
vt 0.017578 0.500000
vt 0.017578 0.500000
vt 0.123047 0.500000
vt 0.123047 0.500000
vt 0.123047 0.500000
vt 0.123047 0.500000
vt 0.123047 0.500000
vt 0.017578 0.500000
vt 0.017578 0.500000
vt 0.025391 0.500000
vt 0.025391 0.500000
vt 0.025391 0.500000
vt 0.017578 0.500000
vt 0.119141 0.500000
vt 0.119141 0.500000
vt 0.119141 0.500000
vt 0.025391 0.500000
vt 0.119141 0.500000
vt 0.119141 0.500000
vt 0.119141 0.500000
vt 0.017578 0.500000
vt 0.017578 0.500000
vt 0.017578 0.500000
vt 0.123047 0.500000
vt 0.123047 0.500000
vt 0.123047 0.500000
vt 0.123047 0.500000
vt 0.123047 0.500000
vt 0.017578 0.500000
vt 0.017578 0.500000
vt 0.017578 0.500000
vt 0.017578 0.500000
vt 0.017578 0.500000
vt 0.017578 0.500000
vt 0.017578 0.500000
vt 0.017578 0.500000
vt 0.017578 0.500000
vt 0.017578 0.500000
vt 0.017578 0.500000
vt 0.017578 0.500000
vt 0.123047 0.500000
vt 0.123047 0.500000
vt 0.123047 0.500000
vt 0.123047 0.500000
vt 0.123047 0.500000
vt 0.123047 0.500000
vt 0.123047 0.500000
vt 0.123047 0.500000
vt 0.017578 0.500000
vt 0.017578 0.500000
vt 0.017578 0.500000
vt 0.017578 0.500000
vt 0.017578 0.500000
vt 0.017578 0.500000
vt 0.017578 0.500000
vt 0.017578 0.500000
vt 0.119141 0.500000
vt 0.119141 0.500000
vt 0.119141 0.500000
vt 0.119141 0.500000
vt 0.123047 0.500000
vt 0.123047 0.500000
vt 0.123047 0.500000
vt 0.123047 0.500000
vt 0.123047 0.500000
vt 0.123047 0.500000
vt 0.123047 0.500000
vt 0.123047 0.500000
vt 0.017578 0.500000
vt 0.017578 0.500000
vt 0.017578 0.500000
vt 0.017578 0.500000
vt 0.123047 0.500000
vt 0.123047 0.500000
vt 0.123047 0.500000
vt 0.123047 0.500000
vt 0.017578 0.500000
vt 0.017578 0.500000
vt 0.017578 0.500000
vt 0.017578 0.500000
vt 0.119141 0.500000
vt 0.119141 0.500000
vt 0.119141 0.500000
vt 0.119141 0.500000
vt 0.123047 0.500000
vt 0.123047 0.500000
vt 0.123047 0.500000
vt 0.123047 0.500000
vt 0.123047 0.500000
vt 0.123047 0.500000
vt 0.123047 0.500000
vt 0.123047 0.500000
vt 0.017578 0.500000
vt 0.017578 0.500000
vt 0.017578 0.500000
vt 0.017578 0.500000
vt 0.119141 0.500000
vt 0.119141 0.500000
vt 0.119141 0.500000
vt 0.119141 0.500000
vt 0.017578 0.500000
vt 0.017578 0.500000
vt 0.017578 0.500000
vt 0.017578 0.500000
vt 0.123047 0.500000
vt 0.123047 0.500000
vt 0.123047 0.500000
vt 0.123047 0.500000
vn -1.0000 0.0000 0.0000
vn 1.0000 0.0000 0.0000
vn 0.0000 0.0000 1.0000
vn 0.0000 0.0000 -1.0000
vn 0.0000 -1.0000 -0.0000
vn 0.0000 1.0000 0.0000
usemtl palette.018
s 1
f 1/1/1 2/2/1 3/3/1
f 4/4/1 2/2/1 1/1/1
f 5/5/1 6/6/1 7/7/1
f 8/8/1 6/6/1 5/5/1
f 9/9/1 6/6/1 8/8/1
f 10/10/1 1/1/1 11/11/1
f 12/12/1 4/13/1 1/14/1
f 12/15/1 1/1/1 10/10/1
f 13/16/1 5/17/1 4/18/1
f 13/19/1 4/13/1 12/12/1
f 13/16/1 8/20/1 5/17/1
f 14/21/1 8/20/1 13/16/1
f 15/22/1 8/20/1 14/21/1
f 16/23/1 13/24/1 12/15/1
f 17/25/1 13/24/1 16/23/1
f 18/26/1 19/27/1 15/28/1
f 18/26/1 15/28/1 14/29/1
f 20/30/1 19/27/1 18/26/1
f 21/31/2 22/32/2 23/33/2
f 23/33/2 22/32/2 24/34/2
f 25/35/2 26/36/2 27/37/2
f 27/37/2 26/36/2 28/38/2
f 28/38/2 26/36/2 29/39/2
f 30/40/2 23/33/2 31/41/2
f 23/42/2 24/43/2 32/44/2
f 31/41/2 23/33/2 32/45/2
f 24/46/2 27/47/2 33/48/2
f 32/44/2 24/43/2 33/49/2
f 27/47/2 28/50/2 33/48/2
f 33/48/2 28/50/2 34/51/2
f 34/51/2 28/50/2 35/52/2
f 32/45/2 33/53/2 36/54/2
f 36/54/2 33/53/2 37/55/2
f 35/56/2 38/57/2 39/58/2
f 34/59/2 35/56/2 39/58/2
f 39/58/2 38/57/2 40/60/2
f 41/61/3 42/62/3 43/63/3
f 44/64/3 42/62/3 41/61/3
f 45/65/3 46/66/3 47/67/3
f 48/68/3 46/66/3 45/65/3
f 49/69/3 50/70/3 51/71/3
f 52/72/3 50/70/3 49/69/3
f 53/73/3 54/74/3 55/75/3
f 56/76/3 54/74/3 53/73/3
f 57/77/3 58/78/3 59/79/3
f 60/80/3 58/78/3 57/77/3
f 61/81/4 62/82/4 63/83/4
f 63/83/4 62/82/4 64/84/4
f 65/85/4 66/86/4 67/87/4
f 67/87/4 66/86/4 68/88/4
f 69/89/4 70/90/4 71/91/4
f 71/91/4 70/90/4 72/92/4
f 73/93/4 74/94/4 75/95/4
f 75/95/4 74/94/4 76/96/4
f 77/97/4 78/98/4 79/99/4
f 79/99/4 78/98/4 80/100/4
f 81/101/5 82/102/5 83/103/5
f 84/104/5 82/102/5 81/101/5
f 85/105/5 86/106/5 87/107/5
f 88/108/5 86/106/5 85/105/5
f 89/109/5 90/110/5 91/111/5
f 92/112/5 90/110/5 89/109/5
f 93/113/5 94/114/5 95/115/5
f 96/116/5 94/114/5 93/113/5
f 97/117/5 98/118/5 99/119/5
f 100/120/5 98/118/5 97/117/5
f 101/121/6 102/122/6 103/123/6
f 103/123/6 102/122/6 104/124/6
f 105/125/6 106/126/6 107/127/6
f 107/127/6 106/126/6 108/128/6
f 109/129/6 110/130/6 111/131/6
f 111/131/6 110/130/6 112/132/6
f 113/133/6 114/134/6 115/135/6
f 115/135/6 114/134/6 116/136/6
f 117/137/6 118/138/6 119/139/6
f 119/139/6 118/138/6 120/140/6
